<svg width="56" height="56" viewBox="0 0 56 56" fill="none" xmlns="http://www.w3.org/2000/svg">
<path d="M0 20.2666C0 13.1727 0 9.62566 1.38058 6.91612C2.59498 4.53274 4.53274 2.59498 6.91612 1.38058C9.62566 0 13.1727 0 20.2666 0H35.7334C42.8274 0 46.3744 0 49.0838 1.38058C51.4672 2.59498 53.405 4.53274 54.6194 6.91612C56 9.62566 56 13.1727 56 20.2666V35.7334C56 42.8274 56 46.3744 54.6194 49.0838C53.405 51.4672 51.4672 53.405 49.0838 54.6194C46.3744 56 42.8274 56 35.7334 56H20.2666C13.1727 56 9.62566 56 6.91612 54.6194C4.53274 53.405 2.59498 51.4672 1.38058 49.0838C0 46.3744 0 42.8274 0 35.7334V20.2666Z" fill="#00005B"/>
<path d="M12 39.5914V14.4159C12 14.2447 12.0702 14.1468 12.234 14.1468C14.6525 14.1468 17.0698 14 19.489 14C23.4142 14 27.6646 15.3681 29.1544 19.5538C29.5054 20.5814 29.6926 21.6334 29.6926 22.7344C29.6926 24.8384 29.2246 26.5754 28.2884 27.9456C25.6736 31.7728 21.1412 31.7134 17.0784 31.7134V39.5668C17.1102 39.7994 16.9158 39.9094 16.7274 39.9094H12.2808C12.0936 39.9094 12 39.8116 12 39.5914ZM17.1018 18.8688V27.0892C18.7128 27.2096 20.3984 27.2226 21.9462 26.6978C23.655 26.1954 24.5908 24.6878 24.5908 22.8812C24.6384 21.3418 23.8154 19.8646 22.4144 19.3092C20.8852 18.661 18.7526 18.6222 17.1018 18.8688Z" fill="#9999FF"/>
<path d="M32.865 20.4238H36.9722C37.1986 20.426 37.402 20.5894 37.4618 20.8178C37.7628 21.5164 37.8 22.359 37.801 23.1132C38.5054 22.2558 39.3546 21.5416 40.3066 21.0058C41.3276 20.402 42.485 20.0958 43.6578 20.1196C43.8526 20.0904 44.0248 20.2706 43.997 20.474V25.2402C43.997 25.4244 43.871 25.516 43.6202 25.516C41.8818 25.3906 39.1754 25.82 37.9122 27.2492V39.642C37.9122 39.8784 37.8118 39.9966 37.6108 39.9966H33.2042C32.9878 40.029 32.7968 39.8254 32.8274 39.6026V26.1462C32.8274 24.3432 32.8648 22.4858 32.6014 20.6996C32.5608 20.5352 32.7112 20.3824 32.865 20.4238Z" fill="#9999FF"/>
</svg>
