<svg width="56" height="56" viewBox="0 0 56 56" fill="none" xmlns="http://www.w3.org/2000/svg">
<path d="M0 20.2666C0 13.1727 0 9.62566 1.38058 6.91612C2.59498 4.53274 4.53274 2.59498 6.91612 1.38058C9.62566 0 13.1727 0 20.2666 0H35.7334C42.8274 0 46.3744 0 49.0838 1.38058C51.4672 2.59498 53.405 4.53274 54.6194 6.91612C56 9.62566 56 13.1727 56 20.2666V35.7334C56 42.8274 56 46.3744 54.6194 49.0838C53.405 51.4672 51.4672 53.405 49.0838 54.6194C46.3744 56 42.8274 56 35.7334 56H20.2666C13.1727 56 9.62566 56 6.91612 54.6194C4.53274 53.405 2.59498 51.4672 1.38058 49.0838C0 46.3744 0 42.8274 0 35.7334V20.2666Z" fill="#470137"/>
<path d="M29.293 16.4675L22.3056 28.2963L29.7812 40.8569C29.9366 41.1417 29.7812 41.2047 29.556 41.2047H24.2216C23.8458 41.2047 23.5828 41.1911 23.4326 40.9341C22.9312 39.9323 22.4304 38.9369 21.9298 37.9479C21.4286 36.9593 20.8964 35.9511 20.3334 34.9233C19.7698 33.8963 19.2126 32.8561 18.6616 31.8025C18.1604 32.8301 17.603 33.8575 17.065 34.8849C16.5262 35.9125 15.994 36.9335 15.4684 37.9479C14.9425 38.9629 14.4041 39.9711 13.8531 40.9725C13.7527 41.2037 13.5772 41.2275 13.3271 41.2275H8.18052C7.9783 41.2275 7.9539 41.0755 8.06784 40.8955L15.3181 28.6815L8.2556 16.4289C8.12732 16.2541 8.23772 16.0679 8.44348 16.0821H13.7403C13.9697 16.0693 14.1724 16.1557 14.3038 16.3519C14.7546 17.3795 15.2555 18.4071 15.8065 19.4343C16.357 20.4619 16.9144 21.4767 17.4782 22.4781C18.0418 23.4799 18.599 24.4945 19.0748 25.5221C19.5754 24.4691 20.0826 23.4417 20.5962 22.4397C21.1094 21.4379 21.6352 20.4297 22.174 19.4151C22.7124 18.4007 23.232 17.3925 23.733 16.3905C23.7996 16.1707 23.9588 16.0593 24.1838 16.0821H29.105C29.293 16.0821 29.3706 16.3387 29.293 16.4675Z" fill="#FF61F6"/>
<path d="M40.0742 41.705C36.7612 41.7568 33.291 40.3926 31.5466 37.3704C30.695 35.9194 30.2692 34.1022 30.2694 31.9184C30.2552 30.15 30.6958 28.409 31.5466 26.871C33.742 22.9466 38.1648 21.4762 42.3658 21.8622V14.2717C42.3658 14.0923 42.441 14.002 42.5912 14.002H47.3246C47.454 13.9831 47.5684 14.1005 47.55 14.2332V37.0044C47.55 37.9438 47.6432 38.88 47.7004 39.817C47.7096 39.977 47.617 40.1354 47.4748 40.2024C45.1362 41.2028 42.6056 41.6934 40.0742 41.705ZM42.3658 36.9272V26.4086C38.9346 25.4554 35.6034 28.0688 35.6038 31.6872C35.5224 35.4282 38.7472 38.0128 42.3658 36.9272Z" fill="#FF61F6"/>
</svg>
