<svg width="56" height="56" viewBox="0 0 56 56" fill="none" xmlns="http://www.w3.org/2000/svg">
<path d="M0 20.2666C0 13.1727 0 9.62566 1.38058 6.91612C2.59498 4.53274 4.53274 2.59498 6.91612 1.38058C9.62566 0 13.1727 0 20.2666 0H35.7334C42.8274 0 46.3744 0 49.0838 1.38058C51.4672 2.59498 53.405 4.53274 54.6194 6.91612C56 9.62566 56 13.1727 56 20.2666V35.7334C56 42.8274 56 46.3744 54.6194 49.0838C53.405 51.4672 51.4672 53.405 49.0838 54.6194C46.3744 56 42.8274 56 35.7334 56H20.2666C13.1727 56 9.62566 56 6.91612 54.6194C4.53274 53.405 2.59498 51.4672 1.38058 49.0838C0 46.3744 0 42.8274 0 35.7334V20.2666Z" fill="#001E36"/>
<path d="M12 41.0324V16.4068C12 16.2394 12.07 16.1436 12.2333 16.1436C14.6446 16.1436 17.0548 16 19.4666 16C23.3804 16 27.618 17.3382 29.1034 21.4324C29.4534 22.4376 29.64 23.4666 29.64 24.5436C29.64 26.6018 29.1734 28.3008 28.24 29.641C25.6328 33.3846 21.114 33.3264 17.0634 33.3264V41.0086C17.095 41.236 16.9012 41.3436 16.7134 41.3436H12.28C12.0933 41.3436 12 41.2478 12 41.0324ZM17.0866 20.7624V28.8034C18.6928 28.921 20.3734 28.9338 21.9166 28.4206C23.6204 27.929 24.5534 26.4544 24.5534 24.6872C24.6006 23.1814 23.7802 21.7366 22.3834 21.1932C20.8588 20.5592 18.7324 20.5212 17.0866 20.7624Z" fill="#31A8FF"/>
<path d="M44.1934 27.2148C43.4874 26.8426 42.7354 26.5704 41.958 26.4056C40.9592 26.1706 37.0196 25.3474 37.018 27.4074C37.053 28.5574 38.8786 29.1208 39.6852 29.4494C42.517 30.4216 45.7214 32.1594 45.6584 35.6528C45.745 40.0016 41.5314 41.7402 37.9196 41.7406C36.0394 41.76 34.0806 41.4688 32.3598 40.6616C32.1954 40.5746 32.0898 40.3888 32.0968 40.1992V36.038C32.0782 35.8712 32.2574 35.7254 32.3974 35.8454C34.0834 36.865 36.0818 37.3602 38.0324 37.3866C38.8934 37.3866 40.5998 37.3032 40.587 36.038C40.587 34.824 38.5456 34.2658 37.7318 33.9574C36.5522 33.5364 35.4338 32.953 34.4072 32.2236C32.9724 31.2002 32.0724 29.5594 32.0968 27.7542C32.0884 23.6594 35.967 21.8214 39.46 21.8206C41.0928 21.807 42.8464 21.928 44.3664 22.5912C44.585 22.6554 44.6302 22.8858 44.6294 23.092V26.9836C44.6432 27.2252 44.375 27.3074 44.1934 27.2148Z" fill="#31A8FF"/>
</svg>
