<svg width="56" height="56" viewBox="0 0 56 56" fill="none" xmlns="http://www.w3.org/2000/svg">
<path d="M0 20.2666C0 13.1727 0 9.62566 1.38058 6.91612C2.59498 4.53274 4.53274 2.59498 6.91612 1.38058C9.62566 0 13.1727 0 20.2666 0H35.7334C42.8274 0 46.3744 0 49.0838 1.38058C51.4672 2.59498 53.405 4.53274 54.6194 6.91612C56 9.62566 56 13.1727 56 20.2666V35.7334C56 42.8274 56 46.3744 54.6194 49.0838C53.405 51.4672 51.4672 53.405 49.0838 54.6194C46.3744 56 42.8274 56 35.7334 56H20.2666C13.1727 56 9.62566 56 6.91612 54.6194C4.53274 53.405 2.59498 51.4672 1.38058 49.0838C0 46.3744 0 42.8274 0 35.7334V20.2666Z" fill="#330000"/>
<path d="M27.1372 35.1926H18.4594L16.6938 40.818C16.6448 41.027 16.4524 41.175 16.243 41.1646H11.8477C11.597 41.1646 11.5094 41.0234 11.5847 40.7408L19.098 18.5476C19.1732 18.3164 19.2484 18.0532 19.3234 17.7578C19.4218 17.2436 19.472 16.7212 19.4738 16.1974C19.4522 16.0426 19.5882 15.9059 19.7366 15.9276H25.7098C25.8848 15.9276 25.9848 15.9918 26.0102 16.1202L34.538 40.7794C34.613 41.0364 34.538 41.1648 34.3126 41.1646H29.4288C29.2576 41.1842 29.094 41.0668 29.0532 40.895L27.1372 35.1926ZM19.8118 30.3378H25.7474C24.7722 27.0054 23.6716 23.7168 22.7796 20.3586C21.8172 23.7226 20.7672 27.073 19.8118 30.3378Z" fill="#FF9A00"/>
<path d="M39.6092 20.0116C39.226 20.0274 38.8439 19.96 38.4877 19.814C38.1317 19.668 37.8098 19.4464 37.543 19.164C37.277 18.8692 37.0702 18.5236 36.9348 18.1466C36.7994 17.7698 36.7379 17.3692 36.7539 16.9678C36.7403 16.5704 36.8085 16.1746 36.9541 15.8061C37.0999 15.4376 37.3198 15.1048 37.5994 14.8294C37.8762 14.5568 38.2029 14.3432 38.5609 14.201C38.9187 14.0588 39.3005 13.9909 39.6841 14.001C40.5859 14.001 41.2933 14.2771 41.8067 14.8294C42.0659 15.1164 42.2673 15.453 42.3995 15.8199C42.5315 16.1868 42.5919 16.577 42.5767 16.9678C42.5925 17.3706 42.5292 17.7728 42.3904 18.15C42.2518 18.5272 42.0404 18.872 41.7692 19.164C41.4858 19.4506 41.1474 19.6738 40.7758 19.8198C40.404 19.9656 40.0068 20.031 39.6092 20.0116ZM37.0169 40.7792V22.362C37.0169 22.1308 37.1168 22.0152 37.3176 22.0152H41.9384C42.1384 22.0152 42.2386 22.1308 42.2388 22.362V40.7792C42.2388 41.0364 42.1386 41.1648 41.9384 41.1646H37.3551C37.1297 41.1646 37.0169 41.0362 37.0169 40.7792Z" fill="#FF9A00"/>
</svg>
