<svg width="110" height="66" viewBox="0 0 110 66" fill="none" xmlns="http://www.w3.org/2000/svg">
<path d="M30.9989 23.8899C30.9989 25.2436 31.1453 26.3411 31.4014 27.146C31.694 27.9509 32.0599 28.8289 32.5721 29.7801C32.755 30.0728 32.8282 30.3655 32.8282 30.6215C32.8282 30.9874 32.6087 31.3532 32.1331 31.7191L29.8282 33.2557C29.499 33.4752 29.1697 33.5849 28.877 33.5849C28.5112 33.5849 28.1453 33.402 27.7795 33.0727C27.2673 32.524 26.8283 31.9386 26.4624 31.3532C26.0966 30.7313 25.7307 30.0362 25.3283 29.1947C22.4747 32.5605 18.8894 34.2435 14.5723 34.2435C11.4992 34.2435 9.04803 33.3654 7.25537 31.6093C5.46272 29.8533 4.5481 27.5118 4.5481 24.585C4.5481 21.4753 5.64564 18.951 7.87732 17.0486C10.109 15.1461 13.0724 14.1949 16.8406 14.1949C18.0845 14.1949 19.365 14.3047 20.7186 14.4876C22.0722 14.6705 23.4625 14.9632 24.9259 15.2925V12.6218C24.9259 9.84133 24.3405 7.90234 23.2064 6.7682C22.0356 5.63407 20.0601 5.0853 17.243 5.0853C15.9626 5.0853 14.6455 5.23164 13.2919 5.5609C11.9382 5.89017 10.6212 6.2926 9.34071 6.80479C8.75535 7.06088 8.31633 7.20722 8.06024 7.28039C7.80415 7.35356 7.62122 7.39015 7.47488 7.39015C6.9627 7.39015 6.7066 7.0243 6.7066 6.25602V4.46336C6.7066 3.878 6.77977 3.43898 6.96269 3.18288C7.14562 2.92679 7.47488 2.6707 7.98707 2.4146C9.26754 1.75607 10.8041 1.2073 12.5968 0.768283C14.3894 0.292679 16.2918 0.0731698 18.304 0.0731698C22.6576 0.0731698 25.8405 1.06096 27.8892 3.03655C29.9014 5.01213 30.9258 8.01209 30.9258 12.0364V23.8899H30.9989ZM16.1455 29.4508C17.3528 29.4508 18.5967 29.2313 19.9137 28.7923C21.2308 28.3533 22.4015 27.5484 23.3893 26.4509C23.9746 25.7558 24.4137 24.9875 24.6332 24.1094C24.8527 23.2314 24.999 22.1704 24.999 20.9266V19.39C23.9381 19.1339 22.8039 18.9144 21.6332 18.768C20.4625 18.6217 19.3284 18.5485 18.1942 18.5485C15.7431 18.5485 13.9504 19.0241 12.7431 20.0119C11.5358 20.9997 10.9504 22.39 10.9504 24.2192C10.9504 25.9387 11.3895 27.2192 12.3041 28.0972C13.1821 29.0118 14.4626 29.4508 16.1455 29.4508ZM45.5231 33.402C44.8646 33.402 44.4256 33.2922 44.1329 33.0361C43.8402 32.8166 43.5841 32.3045 43.3646 31.6093L34.7672 3.32922C34.5477 2.59753 34.4379 2.12192 34.4379 1.86583C34.4379 1.28047 34.7306 0.951207 35.3159 0.951207H38.9013C39.5964 0.951207 40.072 1.06096 40.3281 1.31706C40.6208 1.53657 40.8403 2.04875 41.0598 2.74387L47.206 26.9631L52.9133 2.74387C53.0962 2.01217 53.3157 1.53657 53.6084 1.31706C53.901 1.09755 54.4132 0.951207 55.0718 0.951207H57.9985C58.6937 0.951207 59.1693 1.06096 59.4619 1.31706C59.7546 1.53657 60.0107 2.04875 60.1571 2.74387L65.9375 27.2557L72.2666 2.74387C72.4861 2.01217 72.7422 1.53657 72.9983 1.31706C73.291 1.09755 73.7666 0.951207 74.4251 0.951207H77.8275C78.4129 0.951207 78.7422 1.24389 78.7422 1.86583C78.7422 2.04875 78.7056 2.23168 78.669 2.45119C78.6324 2.6707 78.5592 2.96338 78.4129 3.36581L69.5959 31.6459C69.3764 32.3776 69.1203 32.8532 68.8277 33.0727C68.535 33.2922 68.0594 33.4386 67.4374 33.4386H64.2911C63.596 33.4386 63.1204 33.3288 62.8278 33.0727C62.5351 32.8166 62.279 32.341 62.1326 31.6093L56.462 8.01209L50.8279 31.5728C50.645 32.3045 50.4255 32.7801 50.1328 33.0361C49.8401 33.2922 49.3279 33.402 48.6694 33.402H45.5231ZM92.5346 34.3898C90.6322 34.3898 88.7298 34.1703 86.9006 33.7313C85.0713 33.2922 83.6445 32.8166 82.6933 32.2679C82.108 31.9386 81.7055 31.5728 81.5592 31.2435C81.4128 30.9142 81.3397 30.5484 81.3397 30.2191V28.3533C81.3397 27.585 81.6324 27.2192 82.1811 27.2192C82.4006 27.2192 82.6201 27.2557 82.8397 27.3289C83.0592 27.4021 83.3884 27.5484 83.7543 27.6948C84.9982 28.2435 86.3518 28.6825 87.7786 28.9752C89.242 29.2679 90.6688 29.4142 92.1322 29.4142C94.4371 29.4142 96.2297 29.0118 97.4736 28.2069C98.7175 27.4021 99.376 26.2314 99.376 24.7314C99.376 23.707 99.0467 22.8656 98.3882 22.1704C97.7297 21.4753 96.4858 20.8534 94.6931 20.268L89.3883 18.6217C86.7177 17.7803 84.7421 16.5364 83.5348 14.89C82.3275 13.2803 81.7055 11.4877 81.7055 9.58524C81.7055 8.04867 82.0348 6.69503 82.6933 5.52432C83.3518 4.3536 84.2299 3.32922 85.3274 2.52436C86.425 1.6829 87.6689 1.06096 89.1323 0.621943C90.5956 0.182924 92.1322 0 93.7419 0C94.5468 0 95.3883 0.0365849 96.1931 0.14634C97.0346 0.256094 97.8029 0.402434 98.5711 0.548773C99.3028 0.731698 99.9979 0.914622 100.656 1.13413C101.315 1.35364 101.827 1.57315 102.193 1.79266C102.705 2.08534 103.071 2.37802 103.291 2.70728C103.51 2.99996 103.62 3.40239 103.62 3.91458V5.63407C103.62 6.40235 103.327 6.80479 102.778 6.80479C102.486 6.80479 102.01 6.65845 101.388 6.36577C99.3028 5.41456 96.9614 4.93896 94.3639 4.93896C92.2786 4.93896 90.6322 5.26822 89.4981 5.96334C88.364 6.65845 87.7786 7.71941 87.7786 9.21939C87.7786 10.2438 88.1445 11.1218 88.8762 11.8169C89.6079 12.512 90.9615 13.2071 92.9005 13.8291L98.0955 15.4754C100.73 16.3169 102.632 17.4876 103.766 18.9876C104.9 20.4875 105.449 22.207 105.449 24.1094C105.449 25.6826 105.12 27.1094 104.498 28.3533C103.839 29.5972 102.961 30.6947 101.827 31.5728C100.693 32.4874 99.3394 33.1459 97.7663 33.6215C96.12 34.1337 94.4005 34.3898 92.5346 34.3898Z" fill="#252F3E"/>
<path d="M99.4493 52.1698C87.4129 61.0599 69.9254 65.7793 54.889 65.7793C33.8161 65.7793 14.8286 57.9868 0.487316 45.0357C-0.646814 44.0113 0.377562 42.6211 1.7312 43.426C17.2432 52.4259 36.3771 57.877 56.1695 57.877C69.5229 57.877 84.1934 55.0966 97.6933 49.3893C99.7054 48.4747 101.425 50.7064 99.4493 52.1698ZM104.461 46.4625C102.925 44.4869 94.2909 45.5113 90.3763 45.9869C89.2056 46.1333 89.0226 45.1089 90.0836 44.3406C96.9616 39.5114 108.266 40.9016 109.583 42.5114C110.9 44.1577 109.217 55.4624 102.779 60.877C101.791 61.7184 100.84 61.2794 101.279 60.1819C102.742 56.56 105.998 48.4015 104.461 46.4625Z" fill="#FF9900"/>
</svg>
