<?xml version="1.0" encoding="UTF-8"?>
<svg id="_레이어_1" data-name="레이어_1" xmlns="http://www.w3.org/2000/svg" xmlns:xlink="http://www.w3.org/1999/xlink" version="1.1" viewBox="0 0 114 40">
  <!-- Generator: Adobe Illustrator 29.2.1, SVG Export Plug-In . SVG Version: 2.1.0 Build 116)  -->
  <defs>
    <style>
      .st0 {
        fill: none;
      }

      .st1 {
        fill: #5b21b6;
      }

      .st2 {
        fill: #fff;
      }

      .st3 {
        clip-path: url(#clippath);
      }
    </style>
    <clipPath id="clippath">
      <rect class="st0" y="6.5" width="114" height="26.1"/>
    </clipPath>
  </defs>
  <g class="st3">
    <g>
      <path class="st1" d="M23.8,11.2c-.8-1.6-2.1-2.9-3.8-3.5-5-1.8-10.5-1.6-15.3.7-1.6.8-2.9,2.1-3.5,3.8-1.8,5-1.6,10.5.7,15.3.5,1,1.2,1.9,2,2.5,0,.7,0,1.6-.4,2.1-.1.2,0,.4.2.4.9.1,2.3.1,3.1-1.2,4.7,1.4,9.8,1.1,14.2-1,1.6-.8,2.9-2.1,3.5-3.8,1.8-5,1.6-10.5-.7-15.3Z"/>
      <path class="st2" d="M6.6,10.2h7.5c4,0,6.1,1.7,6.1,4.4s-1.4,3.4-3.4,3.8v.2c2.2,0,4.1,1.7,4.1,4.2s-2.3,5-6.2,5H6.6V10.2ZM15.5,15.6c0-1.1-.9-1.8-2.1-1.8h-2.1v3.5h2.1c1.3,0,2.2-.6,2.2-1.8h0ZM16,22.3c0-1.3-.9-2-2.4-2h-2.4v3.8h2.4c1.7,0,2.5-.6,2.5-1.8Z"/>
      <path d="M31.7,27.8h-4.6V10.2h4.6v17.6Z"/>
      <path d="M38.4,20h3.1v-1.2c0-.7-.6-1.1-1.5-1.1s-1.6.4-1.7,1.2h-4.3c.2-2.4,2.1-4.4,6-4.4s6,1.8,6,4.3v9h-4.3v-1.9h0c-.8,1.4-2.1,2.1-3.8,2.1-2.5,0-4.3-1.2-4.3-3.9s2.2-4,4.9-4.2ZM39.3,25.1c1.1,0,2.2-.7,2.2-2v-.7c-.5,0-1.7,0-2.3.1-.8,0-1.4.7-1.4,1.4s.6,1.2,1.5,1.2h0Z"/>
      <path d="M53,27.8h-4.6V10.2h4.4v6.9h.1c.6-1.7,2-2.6,4-2.6,2.8,0,4.6,2,4.6,5v8.4h-4.6v-7.5c0-1.4-.7-2.2-2-2.2s-2,.8-2,2.2v7.5h0Z"/>
      <path d="M63.9,10.2h4.6v6.7h0c.5-1.3,1.7-2.5,3.7-2.5s5.2,2,5.2,6.8-2.4,6.8-5.2,6.8-3.1-1-3.7-2.3h-.1v2.2h-4.6V10.2h0ZM70.6,24.5c1.4,0,2.1-1.2,2.1-3.3s-.8-3.2-2.1-3.2-2.2,1.2-2.2,3.2.8,3.3,2.2,3.3Z"/>
      <path d="M84.1,27.8h-4.6V10.2h4.6v17.6Z"/>
      <path d="M90.8,20h3.1v-1.2c0-.7-.6-1.1-1.5-1.1s-1.6.4-1.7,1.2h-4.3c.2-2.4,2.1-4.4,6-4.4s6,1.8,6,4.3v9h-4.3v-1.9h0c-.8,1.4-2.1,2.1-3.8,2.1-2.5,0-4.3-1.2-4.3-3.9s2.2-4,4.9-4.2h0ZM91.8,25.1c1.1,0,2.2-.7,2.2-2v-.7c-.5,0-1.7,0-2.3.1-.8,0-1.4.7-1.4,1.4s.6,1.2,1.5,1.2h0Z"/>
      <path d="M105.4,27.8h-4.6V10.2h4.4v6.9h.1c.6-1.7,2-2.6,4-2.6,2.8,0,4.6,2,4.6,5v8.4h-4.6v-7.5c0-1.4-.7-2.2-2-2.2s-2,.8-2,2.2v7.5h0Z"/>
    </g>
  </g>
</svg>