<svg width="56" height="56" viewBox="0 0 56 56" fill="none" xmlns="http://www.w3.org/2000/svg">
<path d="M39.8526 48.9996C38.0658 48.9996 35.5559 48.3535 31.7974 46.2541C27.227 43.6915 23.6919 41.3258 19.1462 36.7928C14.7634 32.4137 12.6306 29.5784 9.64557 24.1477C6.27336 18.0159 6.84821 14.8018 7.4908 13.4281C8.25605 11.7862 9.38561 10.8042 10.8456 9.82953C11.6749 9.28631 12.5525 8.82064 13.4672 8.43844C13.5588 8.39909 13.6439 8.36157 13.7199 8.3277C14.173 8.12362 14.8595 7.8152 15.7291 8.14467C16.3094 8.36248 16.8275 8.80818 17.6385 9.60897C19.3018 11.249 21.5746 14.9015 22.4131 16.6953C22.976 17.9042 23.3486 18.7023 23.3495 19.5973C23.3495 20.6452 22.8223 21.4534 22.1824 22.3255C22.0625 22.4893 21.9435 22.6458 21.8282 22.7978C21.1316 23.713 20.9787 23.9774 21.0794 24.4497C21.2835 25.3987 22.8058 28.2239 25.3075 30.7196C27.8092 33.2154 30.5534 34.6412 31.5063 34.8444C31.9988 34.9497 32.2688 34.7904 33.2135 34.0692C33.349 33.9658 33.4881 33.8587 33.6336 33.7517C34.6094 33.0259 35.3802 32.5125 36.4035 32.5125H36.409C37.2997 32.5125 38.0622 32.8987 39.3254 33.5357C40.973 34.3667 44.7361 36.6098 46.3865 38.2745C47.1893 39.0836 47.6369 39.5997 47.8557 40.179C48.1852 41.0512 47.8749 41.7349 47.6726 42.1925C47.6387 42.2684 47.6012 42.3517 47.5618 42.4441C47.1765 43.3571 46.708 44.2327 46.1623 45.0598C45.1892 46.5149 44.2034 47.6415 42.5575 48.4075C41.7124 48.8072 40.7875 49.0097 39.8526 48.9996Z" fill="oklch(0.704 0.04 256.788)"/>
</svg>
