<?xml version="1.0" encoding="UTF-8"?>
<svg id="_레이어_1" data-name="레이어_1" xmlns="http://www.w3.org/2000/svg" version="1.1" viewBox="0 0 148 40">
  <!-- Generator: Adobe Illustrator 29.2.1, SVG Export Plug-In . SVG Version: 2.1.0 Build 116)  -->
  <defs>
    <style>
      .st0 {
        fill: #ff3000;
      }

      .st1 {
        fill: #fff;
      }
    </style>
  </defs>
  <path d="M8.2,15.5c-2.2,0-3.4,1.7-3.4,4.4s1.3,4.4,3.4,4.4,2.6-.9,2.8-2.2h4.2c-.2,2.7-2.6,5.8-7.1,5.8S.6,25.2.6,20s3.3-8,7.5-8,6.7,2.2,7.1,6h-4.2c-.1-1.5-1.1-2.4-2.8-2.4Z"/>
  <path d="M21.2,27.8h-4.1v-15.6h4.1v15.6h0Z"/>
  <path d="M36.8,27.8h-3.4l-5.8-8.4h-.1v8.4h-4.1v-15.6h3.5l5.7,8.4h.1v-8.4h4.1v15.6h0Z"/>
  <path d="M38.9,12.2h11.2v3.3h-7.1v2.8h6.5v3.3h-6.5v2.8h7v3.3h-11.1v-15.6Z"/>
  <path d="M57.4,12.2l3.7,9.1h.2l3.7-9.1h5.1v15.6h-4v-9.2h-.1l-3.6,9.1h-2.5l-3.5-9.2h-.1v9.3h-4v-15.6h5.1,0Z"/>
  <path d="M71.6,27.8l5.2-15.6h5.6l5.2,15.6h-4.4l-.9-3.1h-5.3l-.9,3.1h-4.5ZM81.3,21.6l-1.6-5.3h-.1l-1.6,5.3h3.4Z"/>
  <path class="st0" d="M105.7,8.5h-14.9c-.9,0-1.6.7-1.6,1.6v19.8c0,.9.7,1.6,1.6,1.6h14.9c.9,0,1.6-.7,1.6-1.6V10.1c0-.9-.7-1.6-1.6-1.6Z"/>
  <path class="st1" d="M91.2,12.2h4.1v6.2h5.8v-6.2h4.1v15.6h-4.1v-6.2h-5.8v6.2h-4.1v-15.6Z"/>
  <path class="st0" d="M125.8,8.5h-14.9c-.9,0-1.6.7-1.6,1.6v19.8c0,.9.7,1.6,1.6,1.6h14.9c.9,0,1.6-.7,1.6-1.6V10.1c0-.9-.7-1.6-1.6-1.6Z"/>
  <path class="st1" d="M125.1,12.1v10c0,3.5-2.7,5.8-6.7,5.8s-6.7-2.2-6.7-5.8v-10h4.1v9.7c0,1.5,1.1,2.6,2.6,2.6s2.6-1.1,2.6-2.6v-9.7h4.1,0Z"/>
  <path class="st0" d="M146,8.5h-14.9c-.9,0-1.6.7-1.6,1.6v19.8c0,.9.7,1.6,1.6,1.6h14.9c.9,0,1.6-.7,1.6-1.6V10.1c0-.9-.7-1.6-1.6-1.6Z"/>
  <path class="st1" d="M132.2,12.2h6.7c3.6,0,5.4,1.5,5.4,3.9s-1.2,3-3,3.4h0c2,.2,3.6,1.7,3.6,3.9s-2.1,4.4-5.5,4.4h-7.3v-15.6h0ZM140.1,17c0-1-.8-1.5-1.9-1.5h-1.9v3.1h1.8c1.1,0,2-.6,2-1.5h0ZM140.6,22.9c0-1.1-.8-1.8-2.1-1.8h-2.2v3.4h2.1c1.5,0,2.2-.6,2.2-1.6h0Z"/>
</svg>