<svg width="50" height="56" viewBox="0 0 50 56" fill="none" xmlns="http://www.w3.org/2000/svg">
<path d="M24.6588 56L4.49369 50.402L0 0H49.378L44.8795 50.3941L24.6588 56Z" fill="#264DE4"/>
<path d="M41.0283 47.1852L44.8725 4.12109H24.689V51.7151L41.0283 47.1852Z" fill="#2965F1"/>
<path d="M10.3018 22.8145L10.8558 28.9961H24.689V22.8145H10.3018Z" fill="#EBEBEB"/>
<path d="M9.18848 10.3028L9.75041 16.4845H24.689V10.3028H9.18848Z" fill="#EBEBEB"/>
<path d="M24.6889 38.8688L24.6618 38.876L17.7773 37.017L17.3372 32.0869H11.1318L11.9979 41.7929L24.6604 45.3081L24.6889 45.3002V38.8688Z" fill="#EBEBEB"/>
<path d="M39.0365 22.8145L40.1525 10.3028H24.6675V16.4845H33.378L32.8155 22.8145H24.6675V28.9961H32.2794L31.5619 37.0132L24.6675 38.874V45.3052L37.3401 41.793L37.4331 40.7486L38.8857 24.4745L39.0365 22.8145Z" fill="white"/>
</svg>
