<?xml version="1.0" encoding="UTF-8"?>
<svg id="_레이어_1" data-name="레이어_1" xmlns="http://www.w3.org/2000/svg" version="1.1" viewBox="0 0 272.3 37.2">
  <!-- Generator: Adobe Illustrator 29.2.1, SVG Export Plug-In . SVG Version: 2.1.0 Build 116)  -->
  <path d="M33.1,1.4c0,1.6,0,1.9-2,7.1-1.2,3.2-1.5,3.9-1.5,3.4s-.6-1.2-1.1-1.5c-.9-.6-.8-.6-8.3-.6s-6.9,0-7.8.2c-2.9.8-5.4,2.9-6.9,5.8-.5.9-5.1,13.5-5.4,14.8,0,.4-.2,1.1-.2,1.8,0,1,0,1.2.2,1.9.3,1.1,1,1.9,1.8,2.4,1.3.6,1.6.6,9.4.6s7.1,0,7.9-.2c1.2-.3,1.9-.7,3-1.8l.5-.4v.6c-.1.3-.2.9-.2,1.2v.6c0,0,12.7,0,12.7,0v-.8c0-.9,0-1.7.4-3,.2-.6,10.9-30.2,12-33.3,0,0-1.5-.1-7.3-.1h-7.3v1.4ZM27.5,15.2c.4.3.7.9.6,1.3,0,.6-4.5,12.6-4.9,13.4-.8,1.5-1.4,2-3.1,2.2-1.1.1-4.6,0-5.2-.1-.2,0-.5-.2-.7-.4-.3-.2-.3-.3-.3-1.1,0-.8,0-1,2.2-6.8,1.2-3.3,2.3-6.2,2.5-6.5.6-1.1,1.5-1.9,2.6-2.1.3,0,1.7,0,3.2,0,2.6,0,2.7,0,3,.2h0ZM87.5.3c-.4.9-2.4,6.5-2.4,6.6s1.3.1,6.7.1h6.7l1-2.9c.6-1.6,1.1-3.1,1.3-3.5L101.1,0h-13.5v.3q-.1,0-.1,0ZM183.1,4.1c-.7,1.8-1.2,3.3-1.2,3.4,0,.2,12.9.2,13,0,0,0,.6-1.6,1.3-3.4l1.2-3.3h-13.1l-1.2,3.3h0ZM223.6,1.7c0,1.1,0,1.8-.6,3.5-.3,1.1-2.2,6.3-2.6,7.3,0,.1-.1,0-.3-.4-.2-.7-.8-1.3-1.6-1.6l-.6-.2h-6.8c-6.7,0-6.8,0-7.6.2-2.8.8-5.2,2.8-6.6,5.5-.5.9-5,13.3-5.4,14.6-.7,2.7,0,5,1.7,5.8,1.2.6,1.5.6,8.5.7,5.5,0,6.6,0,7.5-.1,1.4-.2,2.3-.6,3.4-1.6.4-.3.7-.6.8-.6,0,0,0,.5-.1,1.1,0,.6-.2,1.1-.2,1.1s2.8,0,6.2,0h6.2v-.7c-.2-.9,0-1.9.5-3.4.3-.9,10.6-29.5,11.6-32.1,0,0-1.4-.1-7.1-.1h-7.1v.9s0,0,0,0ZM218.1,15.6c.5.3.7.9.5,1.5-.2.9-4.2,11.6-4.6,12.5-.5,1.1-1.1,1.7-1.8,2.1-.5.2-.7.3-3,.3-2.8,0-3.5,0-4-.5-.3-.3-.3-.3-.3-1.1,0-.7.3-1.4,2.1-6.4,1.1-3.1,2.2-5.9,2.4-6.3.4-.7,1-1.5,1.5-1.8.7-.5,1.3-.5,4.1-.5,2.5,0,2.7,0,3,.2ZM55.6,9.8c-2.6.4-4.7,1.4-6.4,3.2-1,1-1.7,2-2.3,3.3-.5,1.1-5.1,13.6-5.3,14.5-.5,2.6.3,4.8,2.3,5.7,1.4.7,2,.7,14.4.7h10.7s1.7-3.2,1.7-3.2c.9-1.8,1.7-3.3,1.8-3.3,0,0-.3,0-.7.2-1,.5-2.3.9-3.2,1-1,.1-11.3.1-12,0-1-.2-1.4-.9-1.2-1.9.2-.8,4.3-12,4.7-12.8.7-1.3,1.4-1.8,2.9-2.1,1-.2,10.2-.2,11.6,0,1.1.1,1.9.4,2.6.9.6.4.6.4.6.1,0-.2,1.2-6.3,1.2-6.3s-5,0-11.2,0c-9,0-11.4,0-12.2.2h0ZM83.1,10.4c.2,1.7,0,2-4.2,13.8-3.7,10.1-3.9,10.6-5.1,12.2l-.7.9h15.5v-1c0-1.7,0-1.5,5.2-16.1,2.1-5.6,3.7-10.3,3.7-10.3s-3.1,0-7.3,0h-7.3s0,.7,0,.7ZM102,11.1c.1,1.6,0,2-3.9,12.7-4,11-4.1,11.1-5.5,12.8l-.5.6h15.2v-1.1c0-1.2.2-1.9.9-4.1.9-2.6,5.2-14.3,5.5-14.9.4-.7.9-1.3,1.4-1.5.4-.2.7-.2,3.2-.3,3,0,3.7,0,4.1.4.3.3.3.6.2,1.3,0,.6-4.9,13.9-5.8,16-.6,1.4-1.1,2.4-1.7,3.1-.3.3-.5.7-.6.7,0,.1,1.4.1,7.5.1h7.6v-.9c-.2-1.5,0-2.1,3.3-11.2,1.3-3.5,2.4-6.8,2.6-7.3.4-1.4.5-2.6.4-3.4-.3-1.4-1.2-2.8-2.3-3.4-1.2-.6-1.3-.6-7.9-.6-3.9,0-6.4,0-6.9,0-1.6.2-2.5.7-3.8,1.9-.4.4-.7.6-.7.5s0-.6.2-1.1c0-.5.2-1,.2-1.1,0-.2-.4-.2-6.4-.2h-6.4v.9q0,0,0,0ZM151.8,10.3c-1.2,0-2.7.3-3.6.5-2.8.7-5.7,2.9-7,5.6-.5,1-2.2,5.7-2.6,7-.2.7-.2,1.3-.2,2,0,1,0,1.1.3,1.8.4.9,1,1.4,1.8,1.6,1,.3,2.5.4,9.1.4,3.9,0,6.6,0,6.8.1.4.2.5.5.3,1.1-.2.9-.8,1.4-1.6,1.5-.4,0-2.7.1-8.3,0-6.9,0-7.8,0-8.3-.2-.6-.2-1.8-.7-2.7-1.3-.2-.1-.4-.2-.4-.2,0,0-.3,1.5-.6,3.2s-.6,3.3-.6,3.4c0,.2.6.2,12.2.2s12.7,0,13.5-.1c4.1-.4,7.4-2.7,9.3-6.4.5-1,2.2-5.7,2.6-7,.1-.5.2-1.1.2-1.9,0-1.1,0-1.3-.3-1.8-.5-1-1.4-1.6-2.8-1.9-.7-.1-1.7-.2-7.3-.2-3.6,0-6.8,0-7,0-.3,0-.6-.2-.7-.3-.3-.4.1-1.4.7-1.8.4-.2.6-.2,8.1-.2s8.7,0,9.7.6c.3.1.7.4,1,.6.4.4.4.4.5.1,0-.1.3-1.5.5-3.1.3-1.6.5-2.9.5-3.1v-.3c0,0-11.1,0-11.1,0-6.2,0-11.5,0-11.8,0ZM179.8,11.5c0,1.7,0,1.5-3.7,11.7-4.1,11.2-4.3,11.7-5.6,13.2l-.6.7h15.3v-1.3c0-1.1,0-1.4.4-2.4.2-.6,2.1-6.1,4.3-12.1s4-11,4-11-2.7-.1-7-.1h-7.1v1.3ZM246.3,10.3c-4.4.4-7.8,3-9.7,7.4-.6,1.3-4,10.9-4.3,11.9-1.1,4.2,0,6.6,3.2,7.2.8.2,2.2.2,14.4.2h13.5l1.6-3c.9-1.7,1.6-3.1,1.6-3.1s-.1,0-.3,0c-.5.3-1.6.6-2.6.8-.9.2-1.8.2-9,.2s-8.1,0-8.5-.2c-1-.4-1.1-1.1-.2-3.6l.6-1.8h11.1s11.1,0,11.1,0l.7-2c2.7-7.4,2.9-8,2.8-9.7,0-1.3-.2-1.9-.9-2.7-.8-1-2-1.4-4.8-1.5-2.3-.1-19-.1-20.2,0ZM258.6,15.6c.6.4.6.8-.4,3.7l-.7,1.8h-4.6c-2.7,0-4.6,0-4.6,0,0-.2,1.3-3.6,1.6-4.1.3-.6.8-1.2,1.1-1.4.4-.2,1.2-.3,4.2-.3,2.7,0,2.9,0,3.3.2h0Z"/>
</svg>