<svg width="141" height="32" viewBox="0 0 141 32" fill="none" xmlns="http://www.w3.org/2000/svg">
<path d="M43.7437 31.4657V0.617282H45.4182V5.47009C45.616 5.25512 45.7987 5.02675 45.965 4.7866C46.6493 3.3662 47.7242 2.17029 49.0639 1.33904C50.4036 0.507787 51.9525 0.075645 53.529 0.0932665C57.3452 -0.0206493 60.4437 1.39191 62.2664 4.7866C63.4261 6.89543 64.0643 9.25118 64.1277 11.657C64.1911 14.0629 63.6779 16.449 62.6309 18.616C60.9335 22.4208 56.7414 24.3118 52.2532 23.6169C50.8564 23.4979 49.5117 23.0311 48.3417 22.2591C47.1717 21.487 46.2137 20.4343 45.5549 19.1969V31.4657H43.7437ZM45.4182 11.5304C45.5663 13.0341 45.6233 14.1049 45.7941 15.1529C46.4549 19.2767 48.8926 21.7259 52.7202 22.1701C54.5174 22.4656 56.3615 22.1286 57.9381 21.2167C59.5147 20.3048 60.7263 18.8744 61.3664 17.1692C62.102 15.4153 62.456 13.525 62.4049 11.6238C62.3538 9.72265 61.8989 7.85407 61.0702 6.14219C60.387 4.61389 59.225 3.34942 57.7598 2.53973C56.2945 1.73004 54.6056 1.41912 52.948 1.65392C51.3918 1.76667 49.9094 2.36153 48.7069 3.35579C47.5044 4.35004 46.6416 5.69429 46.2384 7.20161C45.8816 8.62749 45.6078 10.0728 45.4182 11.5304Z" fill="black"/>
<path d="M98.2865 15.7225C98.0328 17.8945 96.9989 19.9004 95.3771 21.3671C93.7552 22.8339 91.6559 23.6617 89.4695 23.6966C82.4523 24.0498 79.1601 19.3906 78.6361 14.0138C78.2724 11.0939 78.7465 8.13078 80.0031 5.47013C80.8782 3.64508 82.3113 2.14585 84.0951 1.18945C85.8789 0.233044 87.9207 -0.13091 89.9251 0.150263C91.8307 0.31177 93.6372 1.06865 95.0887 2.31373C96.5403 3.5588 97.5634 5.22897 98.0131 7.08773C98.3697 8.78063 98.6321 10.492 98.7992 12.2139H80.3562C80.0145 17.0895 82.6345 21.0082 86.3482 21.9537C90.9732 23.0929 94.926 21.088 96.3614 16.6908C96.6803 15.5631 97.2613 15.4036 98.2865 15.7225ZM80.3562 10.6533H96.8398C96.7373 5.45873 93.5021 1.69951 89.1163 1.64256C84.1496 1.56282 80.5726 5.18534 80.3562 10.6533Z" fill="black"/>
<path d="M101.681 15.8365H103.299C103.358 17.0267 103.745 18.1775 104.416 19.1623C105.088 20.147 106.017 20.9276 107.103 21.4183C108.467 22.0321 109.952 22.3303 111.447 22.2909C112.942 22.2514 114.409 21.8753 115.738 21.1905C116.463 20.8639 117.07 20.3229 117.477 19.6405C117.885 18.9581 118.073 18.1671 118.017 17.3743C118.058 16.6097 117.849 15.8524 117.422 15.2172C116.994 14.582 116.371 14.1035 115.647 13.8543C113.87 13.1936 111.979 12.8291 110.168 12.2481C108.283 11.7114 106.44 11.0375 104.654 10.2318C101.738 8.80787 101.556 3.26017 104.859 1.50587C106.551 0.551298 108.455 0.0355548 110.397 0.00570714C112.339 -0.0241405 114.257 0.432856 115.978 1.335C117.02 1.91087 117.861 2.7907 118.39 3.85717C118.92 4.92365 119.111 6.12609 118.939 7.30418H117.55C117.55 7.23583 117.424 7.17887 117.424 7.11052C117.253 2.6792 113.54 1.31221 109.553 1.69953C108.362 1.84634 107.206 2.19701 106.135 2.73616C105.492 3.03047 104.955 3.51731 104.6 4.12946C104.245 4.74161 104.089 5.44888 104.153 6.15363C104.155 6.85871 104.375 7.54591 104.783 8.12103C105.191 8.69615 105.767 9.13103 106.431 9.36606C108.186 10.004 110.02 10.4141 111.82 10.9153C113.266 11.314 114.77 11.576 116.171 12.0545C117.16 12.3787 118.027 12.9955 118.658 13.8235C119.289 14.6514 119.653 15.6513 119.703 16.6908C119.872 17.8298 119.678 18.9932 119.148 20.0156C118.618 21.0381 117.78 21.8677 116.752 22.3866C112.947 24.5396 106.682 23.9701 103.891 21.2475C103.184 20.5361 102.624 19.6917 102.245 18.763C101.866 17.8343 101.674 16.8396 101.681 15.8365Z" fill="black"/>
<path d="M140.208 7.30412H138.692C138.692 7.09907 138.613 6.9168 138.59 6.74593C138.565 5.61026 138.151 4.5175 137.417 3.65066C136.683 2.78381 135.673 2.1955 134.557 1.98425C132.451 1.38002 130.205 1.48815 128.167 2.29182C127.361 2.52282 126.652 3.00817 126.145 3.67542C125.637 4.34267 125.36 5.15603 125.353 5.99409C125.325 6.81713 125.581 7.62473 126.079 8.28055C126.577 8.93637 127.286 9.40023 128.087 9.59382C130.365 10.3001 132.7 10.733 135.013 11.3709C135.762 11.5508 136.5 11.7752 137.223 12.043C138.302 12.4291 139.239 13.1317 139.913 14.059C140.586 14.9863 140.964 16.0952 140.998 17.2408C141.031 18.3863 140.718 19.5153 140.099 20.4801C139.481 21.4449 138.585 22.2006 137.53 22.6486C135.923 23.3786 134.181 23.7647 132.415 23.7824C130.65 23.8001 128.9 23.4488 127.278 22.7511C125.944 22.1759 124.819 21.2059 124.053 19.9716C123.287 18.7374 122.918 17.2982 122.995 15.8478H123.633H124.476C124.75 17.1696 125.342 18.4046 126.201 19.446C127.059 20.4874 128.159 21.3037 129.405 21.8243C130.65 22.3449 132.003 22.5541 133.348 22.4337C134.692 22.3134 135.987 21.8671 137.12 21.1335C137.811 20.7749 138.384 20.2258 138.771 19.5515C139.159 18.8771 139.345 18.1057 139.308 17.3287C139.342 16.5637 139.126 15.8083 138.692 15.1772C138.258 14.546 137.63 14.0736 136.904 13.8315C135.127 13.1708 133.236 12.8176 131.425 12.2367C129.529 11.7083 127.675 11.042 125.877 10.2431C123.029 8.84198 122.801 3.33985 126.048 1.58555C127.76 0.590983 129.701 0.0567218 131.681 0.034763C133.662 0.0128041 135.614 0.503895 137.348 1.46024C138.34 2.0523 139.138 2.9199 139.646 3.95744C140.154 4.99498 140.349 6.15771 140.208 7.30412Z" fill="black"/>
<path d="M40.9755 23.1384C40.379 23.3642 39.7205 23.3638 39.1244 23.1371C38.5283 22.9104 38.0359 22.4732 37.7403 21.9081C35.8834 19.1286 33.833 16.4743 31.8622 13.7631L31.0078 12.624C28.6612 15.768 26.3145 18.7868 24.1729 21.9195C23.8939 22.4596 23.4281 22.8798 22.8622 23.1019C22.2964 23.3241 21.6691 23.333 21.0972 23.127L29.9029 11.3139L21.7123 0.64003C22.3019 0.427145 22.9469 0.424226 23.5384 0.631765C24.1299 0.839304 24.6316 1.24459 24.9589 1.77919C26.8613 4.55873 28.9687 7.21297 31.0648 10.0267C33.1722 7.23575 35.2569 4.57013 37.2049 1.81337C37.4854 1.28208 37.9515 0.872451 38.5144 0.66241C39.0773 0.452369 39.6978 0.456568 40.2578 0.674208L37.0796 4.88909C35.6556 6.7687 34.2544 8.6597 32.7735 10.4937C32.6542 10.6006 32.5588 10.7314 32.4934 10.8776C32.428 11.0239 32.3943 11.1822 32.3943 11.3424C32.3943 11.5026 32.428 11.661 32.4934 11.8072C32.5588 11.9534 32.6542 12.0842 32.7735 12.1911C35.4961 15.8022 38.1959 19.4247 40.9755 23.1384Z" fill="black"/>
<path d="M78.3627 0.526123V2.12095C77.2106 2.04538 76.0554 2.21223 74.9717 2.61074C73.888 3.00926 72.9 3.63057 72.0713 4.43458C71.2426 5.23859 70.5917 6.20743 70.1606 7.27856C69.7295 8.34969 69.5278 9.49932 69.5684 10.6532C69.5684 14.4049 69.5684 18.1565 69.5684 21.9081V23.184H67.9395V0.617258H69.5343V5.24224C71.505 1.87033 74.5466 0.617256 78.3627 0.526123Z" fill="black"/>
<path d="M0 11.1659C0.239223 10.0267 0.387313 8.78504 0.717669 7.6231C2.68841 0.617279 10.7195 -2.29896 16.2444 2.04123C19.4796 4.58155 20.2884 8.18128 20.1289 12.2367H1.90239C1.60621 19.4817 6.83495 23.8561 13.5218 21.6233C14.6065 21.2353 15.5775 20.5833 16.3472 19.7262C17.1168 18.869 17.6609 17.8336 17.9303 16.7136C18.2835 15.5744 18.8531 15.3808 19.9353 15.7111C19.757 17.0979 19.2667 18.4263 18.5011 19.5963C17.7356 20.7664 16.7147 21.7476 15.5153 22.4663C13.5336 23.55 11.2601 23.9793 9.01967 23.6929C6.77928 23.4064 4.68684 22.4189 3.04155 20.8715C1.41387 19.0414 0.429696 16.729 0.239223 14.2872C0.239223 13.8999 0.0911326 13.5125 0.0113916 13.148C0.00379718 12.4721 0 11.8114 0 11.1659ZM1.92518 10.676H18.4088C18.3063 5.42452 14.9913 1.69948 10.5714 1.6653C5.65022 1.59695 2.13022 5.24226 1.91378 10.6533L1.92518 10.676Z" fill="black"/>
</svg>
