<svg width="38" height="56" viewBox="0 0 38 56" fill="none" xmlns="http://www.w3.org/2000/svg">
<path d="M28.0001 37.3334C33.1547 37.3334 37.3334 33.1547 37.3334 28C37.3334 22.8454 33.1547 18.6667 28.0001 18.6667C22.8454 18.6667 18.6667 22.8454 18.6667 28C18.6667 33.1547 22.8454 37.3334 28.0001 37.3334Z" fill="#19BCFE"/>
<path fill-rule="evenodd" clip-rule="evenodd" d="M9.33333 56C14.488 56 18.6667 51.8213 18.6667 46.6666C18.6667 45.2595 18.6667 42.1484 18.6667 37.3333C14.4738 37.3333 11.3626 37.3333 9.33333 37.3333C4.17868 37.3333 0 41.512 0 46.6666C0 51.8213 4.17868 56 9.33333 56Z" fill="#09CF83"/>
<path fill-rule="evenodd" clip-rule="evenodd" d="M9.33333 37.3334H18.6667V18.6667C14.1627 18.6667 11.0516 18.6667 9.33333 18.6667C4.17868 18.6667 0 22.8454 0 28C0 33.1547 4.17868 37.3334 9.33333 37.3334Z" fill="#A259FF"/>
<path fill-rule="evenodd" clip-rule="evenodd" d="M9.33333 18.6667H18.6667V0C14.1627 0 11.0516 0 9.33333 0C4.17868 0 0 4.17868 0 9.33333C0 14.488 4.17868 18.6667 9.33333 18.6667Z" fill="#F24E1E"/>
<path fill-rule="evenodd" clip-rule="evenodd" d="M28.0001 18.6667H18.6667V0H28.0001C33.1547 0 37.3334 4.17868 37.3334 9.33333C37.3334 14.488 33.1547 18.6667 28.0001 18.6667Z" fill="#FF7262"/>
</svg>
