<svg width="109" height="46" viewBox="0 0 109 46" fill="none" xmlns="http://www.w3.org/2000/svg">
<path d="M65.3247 15.496C62.9347 15.496 61.1548 16.6695 61.1548 19.4936C61.1548 21.6215 62.3278 23.099 65.1959 23.099C67.6267 23.099 69.2779 21.6664 69.2779 19.4058C69.2779 16.8437 67.8004 15.496 65.3247 15.496ZM60.5463 35.4379C59.9808 36.1317 59.4173 36.8694 59.4173 37.7394C59.4173 39.476 61.6315 39.9986 64.6733 39.9986C67.193 39.9986 70.6251 39.8219 70.6251 37.4794C70.6251 36.0868 68.9739 36.0009 66.8875 35.8701L60.5463 35.4379ZM73.4048 15.6273C74.1855 16.6265 75.0121 18.0172 75.0121 20.0152C75.0121 24.837 71.2326 27.6602 65.7604 27.6602C64.3688 27.6602 63.109 27.487 62.3278 27.2698L60.8937 29.5719L65.1505 29.832C72.6666 30.3111 77.096 30.5288 77.096 36.3039C77.096 41.3009 72.7095 44.123 65.1505 44.123C57.2879 44.123 54.2905 42.1249 54.2905 38.6933C54.2905 36.7382 55.1595 35.6979 56.6799 34.2619C55.2459 33.6559 54.7687 32.5703 54.7687 31.3968C54.7687 30.4404 55.2459 29.5719 56.0291 28.7458C56.8107 27.9217 57.6792 27.0951 58.722 26.1398C56.5936 25.0971 54.9858 22.8379 54.9858 19.6229C54.9858 14.628 58.2877 11.1973 64.9328 11.1973C66.8011 11.1973 67.9312 11.369 68.9305 11.6316H77.402V15.3228L73.4048 15.6273Z" fill="#2F2707"/>
<path d="M85.0444 7.73328C82.5676 7.73328 81.1346 6.29873 81.1346 3.82147C81.1346 1.3477 82.5676 0 85.0444 0C87.5641 0 88.9976 1.3477 88.9976 3.82147C88.9976 6.29873 87.5641 7.73328 85.0444 7.73328ZM79.4395 33.8391V30.409L81.6557 30.106C82.2641 30.0182 82.3505 29.8884 82.3505 29.2355V16.4639C82.3505 15.9872 82.2207 15.6817 81.7849 15.5524L79.4395 14.7263L79.9171 11.2088H88.9103V29.2355C88.9103 29.9318 88.9522 30.0182 89.6056 30.106L91.8213 30.409V33.8391H79.4395Z" fill="#2F2707"/>
<path d="M109 32.155C107.131 33.0665 104.395 33.8921 101.918 33.8921C96.7484 33.8921 94.7942 31.8091 94.7942 26.898V15.517C94.7942 15.2569 94.7942 15.0827 94.4453 15.0827H91.405V11.2164C95.229 10.7811 96.7484 8.86936 97.2261 4.13446H101.354V10.3049C101.354 10.6079 101.354 10.7392 101.701 10.7392H107.826V15.0827H101.354V25.4645C101.354 28.0276 101.962 29.0259 104.307 29.0259C105.525 29.0259 106.783 28.7224 107.826 28.3316L109 32.155Z" fill="#2F2707"/>
<path d="M44.6341 20.755L24.7715 0.893983C23.6285 -0.250061 21.7731 -0.250061 20.6286 0.893983L16.5042 5.01843L21.7362 10.2505C22.9521 9.83969 24.3462 10.1152 25.3156 11.0846C26.2894 12.0599 26.563 13.466 26.1422 14.6859L31.1846 19.7283C32.4045 19.308 33.8121 19.58 34.7864 20.5559C36.1481 21.917 36.1481 24.1233 34.7864 25.4854C33.4242 26.8476 31.218 26.8476 29.8553 25.4854C28.8311 24.4602 28.578 22.9558 29.0966 21.6939L24.3942 16.9915L24.3937 29.3663C24.7256 29.531 25.0391 29.7501 25.3156 30.0257C26.6773 31.3868 26.6773 33.5931 25.3156 34.9562C23.9534 36.3179 21.7462 36.3179 20.386 34.9562C19.0243 33.5931 19.0243 31.3868 20.386 30.0257C20.7224 29.6897 21.1118 29.4357 21.5271 29.265V16.7748C21.1118 16.6051 20.7229 16.3526 20.386 16.0141C19.3543 14.9839 19.1062 13.47 19.6348 12.2031L14.4776 7.04497L0.858407 20.6632C-0.286136 21.8082 -0.286136 23.6636 0.858407 24.8076L20.7209 44.6691C21.8645 45.8132 23.7193 45.8132 24.8644 44.6691L44.6341 24.8999C45.7781 23.7554 45.7781 21.8991 44.6341 20.755Z" fill="#DE4C36"/>
</svg>
