<svg width="56" height="56" viewBox="0 0 56 56" fill="none" xmlns="http://www.w3.org/2000/svg">
<path d="M27.9999 2.33353C21.2647 2.26509 14.7778 4.87361 9.96496 9.58582C5.15212 14.298 2.40713 20.7283 2.33325 27.4635C2.3592 32.7863 4.07145 37.9638 7.22406 42.2525C10.3767 46.5413 14.8074 49.7205 19.8799 51.3335C21.1633 51.5669 21.6299 50.7969 21.6299 50.1202C21.6299 49.4435 21.6299 47.9502 21.6299 45.8502C14.4899 47.3669 12.9733 42.4902 12.9733 42.4902C12.4979 40.9593 11.4875 39.6506 10.1266 38.8035C7.79325 37.2635 10.3133 37.2869 10.3133 37.2869C11.1198 37.3947 11.8914 37.6837 12.5703 38.1323C13.2492 38.5808 13.8177 39.1773 14.2333 39.8769C14.9574 41.1325 16.1455 42.0536 17.5419 42.442C18.9384 42.8304 20.4315 42.655 21.6999 41.9535C21.8304 40.6757 22.409 39.4854 23.3333 38.5935C17.6399 37.9635 11.6666 35.8169 11.6666 26.1802C11.6157 23.6664 12.5445 21.2315 14.2566 19.3902C13.4768 17.232 13.5689 14.8549 14.5133 12.7635C14.5133 12.7635 16.6833 12.0869 21.5133 15.3302C25.7177 14.2098 30.1422 14.2098 34.3466 15.3302C39.2466 12.0869 41.3466 12.7635 41.3466 12.7635C42.2909 14.8549 42.383 17.232 41.6033 19.3902C43.3551 21.1977 44.3343 23.6164 44.3333 26.1335C44.3333 35.7935 38.3133 37.9169 32.6666 38.5469C33.2849 39.1472 33.7625 39.877 34.0651 40.6839C34.3677 41.4908 34.4877 42.3547 34.4166 43.2135V50.0969C34.4166 50.0969 34.8833 51.5669 36.1666 51.3102C41.2247 49.6871 45.6405 46.5072 48.7834 42.2245C51.9262 37.9419 53.6353 32.7756 53.6666 27.4635C53.5927 20.7283 50.8477 14.298 46.0349 9.58582C41.222 4.87361 34.7352 2.26509 27.9999 2.33353Z" fill="#231F20"/>
</svg>
