<svg width="56" height="52" viewBox="0 0 56 52" fill="none" xmlns="http://www.w3.org/2000/svg">
<path d="M28.0001 51.5851L38.3113 19.8508H17.689L28.0001 51.5851Z" fill="#E24329"/>
<path d="M28 51.5851L17.6889 19.8508H3.23804L28 51.5851Z" fill="#FC6D26"/>
<path d="M3.23802 19.8509L0.104642 29.4947C-0.181156 30.3742 0.131861 31.3378 0.880113 31.8814L28 51.5852L3.23802 19.8509Z" fill="#FCA326"/>
<path d="M3.23804 19.8509H17.6889L11.4784 0.737612C11.159 -0.246004 9.76763 -0.245737 9.44821 0.737612L3.23804 19.8509Z" fill="#E24329"/>
<path d="M28 51.5851L38.3112 19.8508H52.762L28 51.5851Z" fill="#FC6D26"/>
<path d="M52.762 19.8509L55.8954 29.4947C56.1812 30.3742 55.8681 31.3378 55.1199 31.8814L28 51.5852L52.762 19.8509Z" fill="#FCA326"/>
<path d="M52.7621 19.8509H38.3113L44.5217 0.737612C44.8411 -0.246004 46.2325 -0.245737 46.5519 0.737612L52.7621 19.8509Z" fill="#E24329"/>
</svg>
