<svg width="50" height="56" viewBox="0 0 50 56" fill="none" xmlns="http://www.w3.org/2000/svg">
<path d="M4.494 50.402L0 0H49.38L44.88 50.394L24.66 56L4.494 50.402Z" fill="#E44F26"/>
<path d="M24.6899 51.716L41.0299 47.186L44.8739 4.12195H24.6899V51.716Z" fill="#F1662A"/>
<path d="M24.6899 22.814H16.5099L15.9459 16.484H24.6899V10.302H24.6679H9.18994L9.33794 11.962L10.8559 28.996H24.6899V22.814Z" fill="#EBEBEB"/>
<path d="M24.6901 38.868L24.6621 38.876L17.7781 37.018L17.3381 32.088H13.9921H11.1321L11.9981 41.792L24.6621 45.308L24.6901 45.3V38.868Z" fill="#EBEBEB"/>
<path d="M24.668 22.814V28.996H32.28L31.564 37.014L24.668 38.874V45.306L37.342 41.792L37.434 40.748L38.886 24.474L39.038 22.814H37.372H24.668Z" fill="white"/>
<path d="M24.668 10.302V14.142V16.47V16.484H39.58H39.6L39.724 15.096L40.006 11.962L40.154 10.302H24.668Z" fill="white"/>
</svg>
