<svg width="286" height="286" viewBox="0 0 286 286" fill="none" xmlns="http://www.w3.org/2000/svg">
<path d="M242.404 0H42.7772C19.152 0 0 19.152 0 42.7772V242.404C0 266.03 19.152 285.182 42.7772 285.182H242.404C266.03 285.182 285.182 266.03 285.182 242.404V42.7772C285.182 19.152 266.03 0 242.404 0Z" fill="#F5C518"/>
<path d="M57.9275 182.694V102.487H35.6477V182.694H57.9275ZM105.272 102.487L100.259 139.806L97.4742 119.754L94.6892 102.487H66.8394V182.694H85.7773V129.78L93.5752 182.694H107.5L114.741 128.666V182.694H133.679V102.487H105.272ZM142.591 182.694V102.487H177.124C185.479 102.487 191.606 108.614 191.606 116.412V168.769C191.606 176.567 185.479 182.694 177.124 182.694H142.591ZM168.77 116.969L163.757 116.412V168.769C166.542 168.769 168.77 168.212 169.327 167.098C170.441 165.985 170.441 162.643 170.441 157.073V125.881V119.197L168.77 116.969ZM233.381 122.539H235.052C242.85 122.539 249.534 128.666 249.534 136.464V168.769C249.534 176.567 242.85 182.694 235.052 182.694H233.381C228.925 182.694 224.469 180.466 221.684 176.567L220.57 181.58H200.518V102.487H221.684V128.109C224.469 124.767 228.925 122.539 233.381 122.539ZM228.925 161.529V142.591L228.368 136.464C227.811 135.35 226.14 134.793 225.026 134.793C223.912 134.793 222.241 135.35 221.684 136.464V168.212C222.241 169.326 223.912 169.883 225.026 169.883C226.14 169.883 228.368 169.326 228.368 168.212L228.925 161.529Z" fill="black"/>
</svg>
