<svg width="181" height="181" viewBox="0 0 181 181" fill="none" xmlns="http://www.w3.org/2000/svg">
<path d="M0 0H180.09V180.09H0V0Z" fill="#F7DF1E"/>
<path d="M47.3523 150.497L61.1341 142.156C63.7928 146.87 66.2115 150.859 72.0129 150.859C77.574 150.859 81.08 148.684 81.08 140.222V82.6792H98.0039V140.461C98.0039 157.99 87.7291 165.969 72.7384 165.969C59.2 165.969 51.3412 158.957 47.3521 150.495" fill="black"/>
<path d="M107.196 148.683L120.976 140.704C124.604 146.628 129.318 150.98 137.659 150.98C144.672 150.98 149.143 147.474 149.143 142.638C149.143 136.836 144.55 134.78 136.813 131.397L132.583 129.582C120.373 124.385 112.273 117.857 112.273 104.076C112.273 91.3823 121.944 81.7109 137.055 81.7109C147.814 81.7109 155.551 85.4588 161.111 95.2508L147.934 103.712C145.033 98.5148 141.891 96.46 137.055 96.46C132.099 96.46 128.956 99.603 128.956 103.712C128.956 108.79 132.099 110.845 139.351 113.989L143.582 115.802C157.968 121.968 166.068 128.253 166.068 142.396C166.068 157.629 154.1 165.97 138.022 165.97C122.307 165.97 112.152 158.475 107.196 148.683Z" fill="black"/>
</svg>
