<svg width="56" height="56" viewBox="0 0 56 56" fill="none" xmlns="http://www.w3.org/2000/svg">
<path d="M0 0H56V56H0V0Z" fill="#F7DF1E"/>
<path d="M14.7245 46.7977L19.01 44.2042C19.8367 45.67 20.5888 46.9103 22.3928 46.9103C24.1221 46.9103 25.2123 46.2339 25.2123 43.6027V25.7094H30.4749V43.6771C30.4749 49.1278 27.2798 51.6088 22.6184 51.6088C18.4085 51.6088 15.9648 49.4284 14.7244 46.7972" fill="black"/>
<path d="M33.3333 46.2338L37.6182 43.7528C38.7462 45.5949 40.2123 46.9481 42.8059 46.9481C44.9864 46.9481 46.3769 45.8578 46.3769 44.3542C46.3769 42.5498 44.9485 41.9107 42.5427 40.8586L41.2274 40.2943C37.4305 38.6782 34.9118 36.6483 34.9118 32.3629C34.9118 28.4159 37.919 25.4085 42.6181 25.4085C45.9637 25.4085 48.3694 26.5739 50.0984 29.6188L46.001 32.25C45.0988 30.6338 44.1217 29.9948 42.6181 29.9948C41.0769 29.9948 40.0995 30.9722 40.0995 32.25C40.0995 33.8289 41.0769 34.4681 43.3321 35.4455L44.6477 36.0093C49.121 37.9266 51.6397 39.881 51.6397 44.279C51.6397 49.0157 47.9182 51.6092 42.9188 51.6092C38.032 51.6092 34.8742 49.2787 33.3333 46.2338Z" fill="black"/>
</svg>
