<svg width="146" height="62" viewBox="0 0 146 62" fill="none" xmlns="http://www.w3.org/2000/svg">
<g clip-path="url(#clip0_302_137)">
<path d="M144.46 0H136.12C134.41 0 133.12 0.83 132 1.95L118.16 15.51C117.13 16.54 117.13 18.17 118.16 19.2L132 32.76C133.12 33.88 134.41 34.71 136.12 34.71H144.46L126.6 17.35L144.46 0Z" fill="#003686"/>
<path d="M113.67 0H108.71V34.71H116.29V2.61C116.29 1.15 115.14 0 113.68 0H113.67Z" fill="#003686"/>
<path d="M26.7699 0C24.2199 0 22.1499 2.07 22.1499 4.62C22.1499 7.17 24.2199 9.24 26.7699 9.24C29.3199 9.24 31.3899 7.17 31.3899 4.62C31.3899 2.07 29.3199 0 26.7699 0Z" fill="#00A0E9"/>
<path d="M6.04991 0H1.15991V34.71H8.66991V2.61C8.66991 1.15 7.51991 0 6.05991 0H6.04991Z" fill="#00A0E9"/>
<path d="M28.1999 13.01H12.1899V17.91C12.1899 19.37 13.3399 20.52 14.7999 20.52H23.2999V32.1C23.2999 33.56 24.4599 34.71 25.9099 34.71H30.8099V15.62C30.8099 14.16 29.6499 13.01 28.1899 13.01H28.1999Z" fill="#00A0E9"/>
<path d="M76.1 9.24C78.65 9.24 80.72 7.17 80.72 4.62C80.72 2.07 78.65 0 76.1 0C73.55 0 71.48 2.07 71.48 4.62C71.48 7.17 73.55 9.24 76.1 9.24Z" fill="#00A0E9"/>
<path d="M86.2598 0H83.2498V4.87C83.2498 6.33 84.4098 7.48 85.8598 7.48H86.2598C91.5298 7.48 95.7998 12.42 95.7998 17.68C95.7998 22.94 91.5198 27.22 86.2598 27.22H79.5698V16.23C79.5698 14.77 78.4198 13.62 76.9598 13.62H72.0598V34.71H86.2598C95.6498 34.71 103.29 27.07 103.29 17.68C103.29 8.29 95.6498 0 86.2598 0Z" fill="#00A0E9"/>
<path d="M66 11.95V11.85C66 8.63 64.98 5.36 63.08 3.46C60.84 1.22 57.48 0 53.13 0H37.52V34.71H45.03V6.77H52.49C56.14 6.77 58.39 9.02 58.39 12.23V12.33C58.39 15.21 56.29 17.16 52.64 17.16H47.69C47.15 17.16 46.72 17.6 46.72 18.13C46.72 18.37 46.81 18.6 46.95 18.77L58.34 32.76C59.22 33.88 60.34 34.71 62.05 34.71H69.89L59.18 22.33C63.33 20.62 66 17.31 66 11.95Z" fill="#00A0E9"/>
<path d="M51.68 43.0601H48.99V56.6101H51.68V49.1701H54.26V47.5001H51.68V43.0601Z" fill="#003686"/>
<path d="M68.3599 55.74H61.6099V53.74H58.9199V58.78C58.9199 60.11 59.9899 61.18 61.3199 61.18H71.0499V53.74H68.3599V55.74ZM68.3599 59.51H62.4799C61.9999 59.51 61.6199 59.12 61.6199 58.65V57.41H68.3699V59.51H68.3599Z" fill="#003686"/>
<path d="M42.2401 58.6501V54.55H39.5601V58.7901C39.5601 60.1201 40.6301 61.19 41.9601 61.19H52.0901V59.5201H43.1101C42.6301 59.5201 42.2401 59.13 42.2401 58.66V58.6501Z" fill="#003686"/>
<path d="M89.42 43.0601H86.73V56.6101H89.42V43.0601Z" fill="#003686"/>
<path d="M105.11 45.0501H102.56V46.7201H105.11V48.1801H102.56V49.8501H105.11V53.3201H107.8V43.0601H105.11V45.0501Z" fill="#003686"/>
<path d="M79.98 58.6501V54.55H77.29V58.7901C77.29 60.1201 78.37 61.19 79.69 61.19H89.54V59.5201H80.84C80.36 59.5201 79.98 59.13 79.98 58.66V58.6501Z" fill="#003686"/>
<path d="M42.22 49.68C43.22 50.98 44.83 52.2 47.16 52.72V51.04C43.38 49.98 43.56 46.16 43.56 46V43.54H40.87V46C40.87 46.16 41.05 49.98 37.27 51.04V52.72C39.61 52.2 41.22 50.98 42.21 49.68H42.22Z" fill="#003686"/>
<path d="M125.43 47.78V45.69C125.43 44.36 124.35 43.29 123.02 43.29H112.91V44.96H121.87C122.35 44.96 122.73 45.35 122.74 45.82V47.77C122.74 48.17 122.7 49.78 122 50.59H118.85V47.11H116.16V50.59H110.75V52.26H127.55V50.59H124.68C125.38 49.78 125.43 48.17 125.43 47.77V47.78Z" fill="#003686"/>
<path d="M103.56 52.52V50.85C102.92 51.21 100.89 51.21 100.89 51.21H96.78C96.3 51.21 95.92 50.82 95.92 50.35V48.93H101.57V45.28C101.57 44.31 100.79 43.53 99.82 43.53H93.23V45.2H98.26C98.6 45.2 98.87 45.49 98.87 45.83V47.26H93.23V50.48C93.23 51.81 94.31 52.88 95.63 52.88H100.89C100.89 52.88 102.92 52.88 103.56 52.52Z" fill="#003686"/>
<path d="M33.3701 47.11V45.69C33.3701 44.36 32.3001 43.29 30.9701 43.29H20.7401V44.96H29.8201C30.3001 44.96 30.6801 45.35 30.6801 45.82V47.1C30.6801 47.48 30.6401 48.99 30.0101 49.83H18.5801V51.5H25.6401V54.35H20.7401V56.02H29.8301C30.3001 56.02 30.6801 56.41 30.6801 56.88V61.17H33.3701V56.74C33.3701 55.41 32.3001 54.34 30.9701 54.34H28.3301V51.49H35.3901V49.82H32.7001C33.3301 48.99 33.3701 47.48 33.3701 47.09V47.11Z" fill="#003686"/>
<path d="M105.4 54.3501H96.4299V56.0201H104.27C104.74 56.0201 105.12 56.4101 105.12 56.8801V61.1701H107.81V56.7401C107.81 55.4101 106.73 54.3401 105.41 54.3401L105.4 54.3501Z" fill="#003686"/>
<path d="M14.8001 43.0601H12.1101V56.6101H14.8001V49.1701H17.3701V47.5001H14.8001V43.0601Z" fill="#003686"/>
<path d="M10.02 48.17C10.02 47.09 9.57 46.11 8.83 45.36H10.3V43.69H6.49V42.23H3.8V43.69H0V45.36H1.47C0.73 46.11 0.28 47.1 0.28 48.17C0.28 50.55 2.46 52.47 5.15 52.47C7.84 52.47 10.02 50.54 10.02 48.17ZM2.97 48.17C2.97 46.72 3.95 45.54 5.15 45.54C6.35 45.54 7.33 46.72 7.33 48.17C7.33 49.62 6.35 50.8 5.15 50.8C3.95 50.8 2.97 49.62 2.97 48.17Z" fill="#003686"/>
<path d="M5.35992 58.6501V54.55H2.66992V58.7901C2.66992 60.1201 3.73992 61.19 5.06992 61.19H15.1999V59.5201H6.21992C5.73992 59.5201 5.35992 59.13 5.35992 58.66V58.6501Z" fill="#003686"/>
<path d="M143.18 47.5001V43.0601H140.49V50.9001C139.75 51.2001 137.95 51.2101 137.95 51.2101H133.13C132.65 51.2101 132.27 50.8201 132.27 50.3501V45.8101C132.29 45.4801 132.55 45.2201 132.88 45.2101H137.8V43.5401H131.33C130.36 43.5401 129.58 44.3201 129.58 45.2901V50.4901C129.58 51.8201 130.66 52.8901 131.98 52.8901H137.95C137.95 52.8901 139.75 52.8901 140.49 52.5801V56.6101H143.18V49.1701H145.76V47.5001H143.18Z" fill="#003686"/>
<path d="M133.74 58.6501V54.55H131.05V58.7901C131.05 60.1201 132.12 61.19 133.45 61.19H143.58V59.5201H134.6C134.12 59.5201 133.74 59.13 133.74 58.66V58.6501Z" fill="#003686"/>
<path d="M119.17 53.3C116.06 53.3 113.54 55.1801 113.54 57.4901C113.54 59.8001 116.06 61.68 119.17 61.68C122.28 61.68 124.8 59.8001 124.8 57.4901C124.8 55.1801 122.28 53.3 119.17 53.3ZM119.17 60.0201C117.55 60.0201 116.23 58.89 116.23 57.5C116.23 56.11 117.55 54.98 119.17 54.98C120.79 54.98 122.11 56.11 122.11 57.5C122.11 58.89 120.79 60.0201 119.17 60.0201Z" fill="#003686"/>
<path d="M84.5801 47.9099C84.5801 45.4299 82.2901 43.4299 79.4701 43.4299C76.6501 43.4299 74.3601 45.4399 74.3601 47.9099C74.3601 50.3799 76.6501 52.3899 79.4701 52.3899C82.2901 52.3899 84.5801 50.3799 84.5801 47.9099ZM77.0601 47.9099C77.0601 46.3599 78.1401 45.0999 79.4801 45.0999C80.8201 45.0999 81.9001 46.3599 81.9001 47.9099C81.9001 49.4599 80.8201 50.7199 79.4801 50.7199C78.1401 50.7199 77.0601 49.4599 77.0601 47.9099Z" fill="#003686"/>
<path d="M68.36 46.8901H65.7C65.26 44.9201 63.28 43.4301 60.9 43.4301C58.2 43.4301 56 45.3501 56 47.7301C56 50.1101 58.19 52.0201 60.9 52.0201C63.28 52.0201 65.26 50.5301 65.7 48.5601H68.36V52.6301H71.05V43.0701H68.36V46.9001V46.8901ZM60.9 50.3501C59.68 50.3501 58.69 49.1801 58.69 47.7301C58.69 46.2801 59.68 45.1101 60.9 45.1101C62.12 45.1101 63.11 46.2801 63.11 47.7301C63.11 49.1801 62.12 50.3501 60.9 50.3501Z" fill="#003686"/>
</g>
<defs>
<clipPath id="clip0_302_137">
<rect width="145.75" height="61.69" fill="white"/>
</clipPath>
</defs>
</svg>
