<svg width="29" height="64" viewBox="0 0 29 64" fill="none" xmlns="http://www.w3.org/2000/svg">
<path fill-rule="evenodd" clip-rule="evenodd" d="M26.9932 20.8829C27.8354 23.3191 28.4419 25.8062 28.6413 28.384C28.889 31.582 28.7756 34.7575 28.1014 37.9031C28.083 37.9897 28.0442 38.071 28.0154 38.1549C27.8039 38.1555 27.5883 38.1292 27.3815 38.1612C25.6348 38.4356 23.8897 38.72 22.1445 39.0028C20.3406 39.2951 18.5341 39.5758 16.7333 39.888C16.0953 39.9982 15.3056 39.8665 15.048 40.749C15.0406 40.7732 14.9672 40.7774 14.9247 40.791L15.0118 35.5173C14.9819 31.2756 14.9525 27.034 14.9231 22.7923L15.7637 22.648C17.1384 22.4229 18.5131 22.1947 19.8888 21.9759C21.5306 21.7151 23.174 21.4617 24.8168 21.2072C25.5414 21.0944 26.2671 20.991 26.9932 20.8829Z" fill="#439934"/>
<path fill-rule="evenodd" clip-rule="evenodd" d="M13.1893 56.1647C12.3026 55.4023 11.3849 54.6735 10.5349 53.8718C5.96108 49.5577 2.6156 44.4802 0.968054 38.3586C0.51419 36.6738 0.21144 34.9617 0.114371 33.2207C0.0461605 32.0024 -0.0524843 30.773 0.0335661 29.561C0.262859 26.3372 0.728792 23.1444 1.6743 20.0393L1.72624 19.9669C1.81806 20.0891 1.95029 20.1972 1.99699 20.3352C2.91993 23.0531 3.83605 25.7732 4.74745 28.4948C7.61125 37.0473 10.4714 45.602 13.3399 54.1525C13.396 54.3193 13.5414 54.4563 13.6458 54.6069L13.1893 56.1647Z" fill="#45A538"/>
<path fill-rule="evenodd" clip-rule="evenodd" d="M26.9938 20.883C26.2676 20.9911 25.5414 21.0944 24.8168 21.2062C23.174 21.4607 21.5306 21.7141 19.8888 21.9749C18.5131 22.1937 17.1384 22.4219 15.7637 22.647L14.9231 22.7913L14.9168 22.243C14.889 21.7923 14.8412 21.3421 14.836 20.8914C14.7998 18.0171 14.7772 15.1428 14.7415 12.2685C14.7195 10.4693 14.6865 8.67064 14.6497 6.87198C14.6272 5.75437 14.603 4.63624 14.5527 3.52021C14.5254 2.92048 14.4288 2.3239 14.3895 1.72417C14.3674 1.37944 14.3979 1.03209 14.4047 0.685791C14.8334 1.51639 15.2526 2.35328 15.6934 3.17758C16.3896 4.48093 17.4988 5.44113 18.4973 6.48895C22.4446 10.6299 25.247 15.4445 26.9938 20.883Z" fill="#46A037"/>
<path fill-rule="evenodd" clip-rule="evenodd" d="M14.9245 40.7905C14.967 40.7769 15.0409 40.7727 15.0478 40.7486C15.3054 39.866 16.0951 39.9977 16.7331 39.8875C18.5338 39.5759 20.3404 39.2946 22.1443 39.0024C23.8894 38.7195 25.6346 38.4352 27.3813 38.1607C27.588 38.1282 27.8037 38.155 28.0151 38.1544C27.6888 39.3193 27.4317 40.5093 27.0177 41.6421C26.5476 42.9271 25.9788 44.1811 25.3749 45.4105C24.4724 47.2485 23.3479 48.9627 22.0414 50.5331C21.0346 51.7441 19.9122 52.8633 18.7873 53.9688C18.1655 54.5801 17.4325 55.078 16.7504 55.6274L16.5736 55.5067L15.9366 54.9621L15.2776 53.5176C14.8237 51.8265 14.5855 50.105 14.5461 48.3556L14.5582 48.0613L14.6479 46.7883C14.6778 46.3539 14.7177 45.92 14.7361 45.4845C14.8038 43.9198 14.8625 42.3552 14.9245 40.7905Z" fill="#409433"/>
<path fill-rule="evenodd" clip-rule="evenodd" d="M14.9246 40.7905C14.8626 42.3551 14.8039 43.9198 14.7372 45.485C14.7189 45.9205 14.679 46.3544 14.6491 46.7888L14.2477 46.9405C13.3562 44.3159 12.4642 41.7192 11.5917 39.1157C10.1488 34.8084 8.72315 30.4944 7.28233 26.1861C6.11907 22.7084 4.94637 19.2343 3.76685 15.7619C3.71176 15.5992 3.5533 15.4723 3.44312 15.3285L6.01204 10.6052C6.10018 10.7584 6.21667 10.9016 6.27229 11.0664C7.46073 14.5834 8.64707 18.101 9.82344 21.6222C11.3535 26.2029 12.874 30.7871 14.403 35.3683C14.4639 35.5514 14.5646 35.7203 14.6606 35.9255L15.0122 35.5162C14.9828 37.2745 14.9534 39.0322 14.9246 40.7905Z" fill="#4FAA41"/>
<path fill-rule="evenodd" clip-rule="evenodd" d="M3.44362 15.329C3.5538 15.4728 3.71174 15.5998 3.76736 15.7624C4.94688 19.2349 6.11958 22.7089 7.28283 26.1866C8.72365 30.4949 10.1493 34.809 11.5922 39.1162C12.4642 41.7192 13.3562 44.3165 14.2482 46.941L14.6496 46.7894L14.5599 48.0623L14.4785 48.3556C14.339 49.7492 14.2214 51.146 14.0514 52.5364C13.9659 53.2332 13.7844 53.9174 13.6464 54.6074C13.5425 54.4568 13.3966 54.3198 13.3405 54.153C10.4719 45.602 7.61182 37.0478 4.74802 28.4953C3.83662 25.7737 2.92049 23.0536 1.99755 20.3357C1.95085 20.1977 1.81915 20.0896 1.72681 19.9674C2.29873 18.4211 2.87117 16.8748 3.44362 15.329Z" fill="#4AA73C"/>
<path fill-rule="evenodd" clip-rule="evenodd" d="M15.0116 35.5167L14.6601 35.926C14.564 35.7209 14.4633 35.5514 14.4024 35.3688C12.874 30.7876 11.3529 26.2034 9.82288 21.6227C8.64651 18.1015 7.46016 14.5839 6.27172 11.0669C6.21663 10.9021 6.10015 10.7584 6.01147 10.6057L9.18852 6.42645C9.28874 6.56025 9.43145 6.67936 9.4834 6.82994C10.3654 9.41198 11.2396 11.9972 12.1085 14.5839C12.9202 16.9996 13.7198 19.419 14.541 21.8316C14.5961 21.9932 14.7876 22.1076 14.9156 22.244L14.9219 22.7923C14.9523 27.0329 14.9822 31.2751 15.0116 35.5167Z" fill="#57AE47"/>
<path fill-rule="evenodd" clip-rule="evenodd" d="M14.9165 22.243C14.7885 22.1066 14.597 21.9922 14.5419 21.8306C13.7207 19.418 12.9211 16.9986 12.1094 14.5829C11.2405 11.9962 10.3664 9.4115 9.48433 6.82894C9.43239 6.67835 9.28967 6.55925 9.18945 6.42545C10.2226 5.41383 11.2237 4.36601 12.2983 3.40109C13.2538 2.54373 14.0219 1.62446 14.0571 0.269695C14.0586 0.213552 14.088 0.157409 14.1332 0L14.4055 0.685255C14.3987 1.03208 14.3677 1.37891 14.3903 1.72363C14.4296 2.32336 14.5262 2.91994 14.5534 3.51967C14.6038 4.6357 14.6279 5.75383 14.6505 6.87144C14.6867 8.6701 14.7198 10.4688 14.7423 12.268C14.7775 15.1423 14.8006 18.0165 14.8368 20.8908C14.841 21.3426 14.8882 21.7923 14.9165 22.243Z" fill="#60B24F"/>
<path fill-rule="evenodd" clip-rule="evenodd" d="M13.6452 54.6069C13.7832 53.9169 13.9647 53.2322 14.0503 52.5359C14.2208 51.146 14.3378 49.7487 14.4774 48.3551L14.512 48.3499L14.5466 48.3556C14.586 50.105 14.8242 51.8265 15.2781 53.5176C15.1857 53.6393 15.0551 53.7479 15.0063 53.8854C14.6248 54.961 14.2654 56.0451 13.8818 57.1207C13.8294 57.2676 13.6835 57.382 13.5807 57.5111L13.1887 56.1647L13.6452 54.6069Z" fill="#A9AA88"/>
<path fill-rule="evenodd" clip-rule="evenodd" d="M13.5813 57.5116C13.6841 57.3825 13.8305 57.2681 13.8825 57.1212C14.266 56.0456 14.626 54.9621 15.0069 53.8859C15.0557 53.7485 15.1858 53.6399 15.2787 53.5181L15.9372 54.9631C15.8071 55.1478 15.6276 55.3142 15.5552 55.5198L14.2938 59.2237C14.2419 59.3722 14.0645 59.4771 13.946 59.6025L13.5813 57.5116Z" fill="#B6B598"/>
<path fill-rule="evenodd" clip-rule="evenodd" d="M13.9458 59.602C14.0649 59.4771 14.2417 59.3716 14.2937 59.2231L15.555 55.5193C15.6269 55.3141 15.8069 55.1473 15.937 54.9626L16.5745 55.5067C16.2665 55.811 16.0955 56.1626 16.1983 56.607L16.0047 57.2408C15.9166 57.3494 15.7891 57.4439 15.7455 57.5682C15.3053 58.8291 14.885 60.0968 14.4416 61.3576C14.3855 61.5176 14.2297 61.643 14.1195 61.7837C14.0623 61.0559 14.004 60.3297 13.9458 59.602Z" fill="#C2C1A7"/>
<path fill-rule="evenodd" clip-rule="evenodd" d="M14.1199 61.7837C14.2296 61.6425 14.3854 61.5171 14.4421 61.3576C14.8854 60.0973 15.3057 58.8296 15.7459 57.5683C15.7895 57.4444 15.9165 57.3495 16.0052 57.2408L15.7381 60.1503C15.6667 60.2327 15.5634 60.3046 15.5293 60.4006C15.2275 61.2474 14.9432 62.1006 14.6404 62.9475C14.578 63.1222 14.4583 63.2764 14.3649 63.4396C14.282 63.331 14.1336 63.2261 14.1267 63.1127C14.1 62.6715 14.1183 62.227 14.1199 61.7837Z" fill="#CECDB7"/>
<path fill-rule="evenodd" clip-rule="evenodd" d="M14.3647 63.4396C14.4581 63.2759 14.5778 63.1216 14.6402 62.9474C14.9435 62.1011 15.2274 61.2479 15.5291 60.4005C15.5632 60.3045 15.667 60.2332 15.7379 60.1503L15.7442 62.0602L15.1051 63.6993L14.3647 63.4396Z" fill="#DBDAC7"/>
<path fill-rule="evenodd" clip-rule="evenodd" d="M15.105 63.6998L15.7441 62.0607L15.8758 64L15.105 63.6998Z" fill="#EBE9DC"/>
<path fill-rule="evenodd" clip-rule="evenodd" d="M16.1984 56.6076C16.0956 56.1631 16.2661 55.8111 16.5747 55.5073L16.7515 55.6279L16.1984 56.6076Z" fill="#CECDB7"/>
<path fill-rule="evenodd" clip-rule="evenodd" d="M14.5468 48.3561L14.5122 48.3503L14.4775 48.3556L14.5589 48.0623L14.5468 48.3561Z" fill="#4FAA41"/>
</svg>
