<svg width="50" height="56" viewBox="0 0 50 56" fill="none" xmlns="http://www.w3.org/2000/svg">
<path d="M47.5953 12.4084L27.1731 0.550186C25.8852 -0.183396 24.2082 -0.183396 22.9101 0.550186L2.26975 12.4084C0.940597 13.173 0 14.61 0 16.1471V39.832C0 41.3691 0.965142 42.8066 2.2943 43.5754L7.74753 46.6728C10.354 47.9565 11.2751 47.9565 12.4612 47.9565C16.3203 47.9565 18.5248 45.6229 18.5248 41.5525V18.1696C18.5248 17.8394 18.353 17.348 18.0288 17.348H15.4247C15.0949 17.348 14.3567 17.8394 14.3567 18.1691V41.552C14.3567 43.3564 12.7247 45.1519 9.67458 43.6268L4.0398 40.379C3.84343 40.2724 3.70496 40.058 3.70496 39.832V16.1471C3.70496 15.9239 3.96199 15.6998 4.15974 15.5854L24.7334 3.74757C24.9256 3.63873 25.2081 3.63873 25.3998 3.74757L45.7224 15.5826C45.917 15.6998 45.8484 15.917 45.8484 16.1471V39.832C45.8484 40.058 45.9332 40.278 45.741 40.3868L25.3239 52.2316C25.1488 52.3367 24.9316 52.3367 24.7399 52.2316L19.5034 49.106C19.3454 49.0143 19.1579 48.9814 19.0064 49.0662C17.5495 49.8919 17.2809 50.0017 15.9142 50.4754C15.578 50.5926 15.082 50.7959 16.1041 51.3688L22.9573 55.423C23.6136 55.8027 24.3592 56 25.1094 56C25.8699 56 26.6146 55.8027 27.2708 55.423L47.5948 43.5754C48.924 42.8011 49.5538 41.3691 49.5538 39.832V16.1471C49.5538 14.61 48.924 13.1767 47.5953 12.4084ZM31.4505 36.0789C26.0199 36.0789 24.8237 34.5807 24.4249 31.8803C24.3786 31.5894 24.1318 31.2416 23.8359 31.2416H21.1817C20.8534 31.2416 20.5894 31.6399 20.5894 31.9669C20.5894 35.4245 22.4692 39.6139 31.4509 39.6139C37.9527 39.6139 41.6803 37.0876 41.6803 32.6166C41.6803 28.1836 38.6853 27.0203 32.38 26.1857C26.0065 25.3433 25.3591 24.9177 25.3591 23.4246C25.3591 22.1936 25.9074 20.5519 30.6266 20.5519C34.8433 20.5519 36.3975 21.4568 37.0371 24.299C37.0917 24.5662 37.3358 24.7579 37.6114 24.7579H40.2762C40.4401 24.7579 40.5966 24.6917 40.7115 24.5745C40.8226 24.4486 40.8815 24.2906 40.8666 24.1211C40.454 19.2269 37.2024 16.946 30.6261 16.946C24.7765 16.946 21.2868 19.4163 21.2868 23.5571C21.2868 28.0484 24.7589 29.2896 30.3742 29.8448C37.0917 30.5034 37.6141 31.4852 37.6141 32.8065C37.6141 35.1012 35.7719 36.0789 31.4505 36.0789Z" fill="#83CD29"/>
</svg>
