<svg width="56" height="50" viewBox="0 0 56 50" fill="none" xmlns="http://www.w3.org/2000/svg">
<path d="M46.0432 16.1489C45.4623 15.949 44.8603 15.7598 44.2405 15.5808C44.3424 15.1651 44.4359 14.7547 44.519 14.3513C45.8837 7.72732 44.9914 2.39099 41.9447 0.634045C39.0233 -1.05063 34.2456 0.705914 29.4203 4.9052C28.9563 5.309 28.491 5.73653 28.0259 6.18458C27.716 5.88814 27.4066 5.60166 27.098 5.32764C22.041 0.837491 16.9721 -1.05472 13.9284 0.70731C11.0098 2.39687 10.1455 7.41353 11.3738 13.6911C11.4924 14.2975 11.6311 14.9167 11.7879 15.5463C11.0705 15.7499 10.3779 15.967 9.71524 16.198C3.78642 18.265 0 21.5046 0 24.8649C0 28.3354 4.06472 31.8164 10.24 33.9271C10.7274 34.0937 11.2331 34.2512 11.7542 34.4007C11.585 35.0816 11.4379 35.7489 11.3144 36.3997C10.1432 42.5683 11.0578 47.4664 13.9687 49.1453C16.9753 50.8792 22.0212 49.097 26.9347 44.802C27.3231 44.4625 27.7128 44.1025 28.1033 43.7251C28.6093 44.2124 29.1146 44.6736 29.6172 45.1062C34.3765 49.2018 39.0771 50.8555 41.9852 49.172C44.9888 47.4332 45.965 42.1714 44.6977 35.7696C44.6009 35.2807 44.4882 34.7812 44.3617 34.2728C44.7161 34.168 45.064 34.0599 45.4032 33.9474C51.823 31.8204 56 28.3818 56 24.8649C56 21.4924 52.0915 18.231 46.0432 16.1489ZM44.6508 31.6767C44.3446 31.778 44.0304 31.876 43.7102 31.971C43.0015 29.7273 42.045 27.3415 40.8745 24.8765C41.9915 22.4703 42.911 20.115 43.5999 17.8858C44.1728 18.0516 44.7288 18.2264 45.2645 18.4109C50.4467 20.1949 53.6077 22.8325 53.6077 24.8649C53.6077 27.0297 50.1939 29.84 44.6508 31.6767ZM42.3508 36.2342C42.9112 39.065 42.9913 41.6243 42.6201 43.6251C42.2865 45.4229 41.6158 46.6216 40.7865 47.1016C39.0216 48.1231 35.2476 46.7953 31.1774 43.2928C30.7108 42.8913 30.2408 42.4625 29.7693 42.0088C31.3472 40.2831 32.9243 38.2768 34.4634 36.0487C37.1706 35.8085 39.7283 35.4157 42.0477 34.8795C42.1619 35.3404 42.2634 35.7923 42.3508 36.2342ZM19.0917 46.9251C17.3674 47.534 15.9941 47.5515 15.164 47.0728C13.3976 46.054 12.6633 42.1212 13.6649 36.8458C13.7797 36.2417 13.9162 35.6211 14.0736 34.9867C16.3676 35.494 18.9066 35.859 21.6202 36.079C23.1697 38.2593 24.7923 40.2633 26.4275 42.0181C26.0702 42.363 25.7144 42.6913 25.3605 43.0007C23.1878 44.8999 21.0105 46.2474 19.0917 46.9251ZM11.0138 31.6634C8.28315 30.7301 6.0281 29.5171 4.48238 28.1935C3.09345 27.004 2.3922 25.8231 2.3922 24.8649C2.3922 22.8257 5.43232 20.2248 10.5027 18.457C11.1179 18.2425 11.762 18.0403 12.4303 17.8504C13.131 20.1299 14.0503 22.5131 15.1596 24.9231C14.0359 27.3688 13.1036 29.79 12.396 32.0962C11.9195 31.9592 11.4579 31.8151 11.0138 31.6634ZM13.7215 13.2317C12.6691 7.85322 13.3681 3.79587 15.1269 2.77775C17.0004 1.69314 21.1432 3.23956 25.5095 7.11659C25.7886 7.36439 26.0688 7.62375 26.3498 7.89209C24.7227 9.63917 23.115 11.6282 21.5793 13.7956C18.9455 14.0397 16.4244 14.4318 14.1065 14.957C13.9608 14.3707 13.8317 13.7948 13.7215 13.2317ZM37.8774 19.1964C37.3233 18.2393 36.7544 17.3048 36.1745 16.3958C37.9612 16.6217 39.6731 16.9215 41.2808 17.2885C40.7981 18.8353 40.1966 20.4526 39.4884 22.1105C38.9805 21.1461 38.4432 20.1738 37.8774 19.1964ZM28.0267 9.60179C29.1302 10.7972 30.2352 12.1319 31.3221 13.5801C30.2268 13.5284 29.118 13.5014 28 13.5014C26.8926 13.5014 25.7919 13.5278 24.7034 13.5786C25.7914 12.1439 26.906 10.811 28.0267 9.60179ZM18.1129 19.213C17.5594 20.1728 17.0321 21.1399 16.5321 22.1087C15.8354 20.4566 15.2395 18.8319 14.7526 17.2631C16.3504 16.9056 18.0542 16.6132 19.8296 16.3916C19.2415 17.309 18.6679 18.2506 18.1129 19.213ZM19.8807 33.5088C18.0464 33.3041 16.317 33.0268 14.7196 32.6791C15.2142 31.0824 15.8234 29.423 16.5348 27.7352C17.0361 28.7034 17.5655 29.6709 18.1224 30.6328C18.6897 31.6128 19.2775 32.5727 19.8807 33.5088ZM28.0929 40.2966C26.9591 39.0733 25.8281 37.72 24.7235 36.2644C25.7958 36.3065 26.889 36.328 28 36.328C29.1414 36.328 30.2698 36.3023 31.3804 36.2528C30.2899 37.7347 29.1889 39.09 28.0929 40.2966ZM39.5113 27.6492C40.2597 29.3552 40.8907 31.0059 41.3917 32.5755C39.768 32.9459 38.015 33.2442 36.1679 33.4659C36.7492 32.5447 37.3231 31.5941 37.887 30.6164C38.4574 29.6271 38.9991 28.6364 39.5113 27.6492ZM35.8148 29.4212C34.9394 30.939 34.0407 32.388 33.1283 33.7557C31.4665 33.8745 29.7498 33.9357 28 33.9357C26.2573 33.9357 24.5622 33.8816 22.9298 33.7756C21.9807 32.39 21.0624 30.9367 20.1926 29.4343C19.3251 27.9359 18.5269 26.4249 17.8034 24.9223C18.5267 23.4162 19.323 21.9035 20.1855 20.4078L20.1853 20.4081C21.0502 18.9084 21.9603 17.4623 22.9007 16.0853C24.5662 15.9594 26.274 15.8937 27.9999 15.8937C29.7336 15.8937 31.4437 15.9599 33.1087 16.0869C34.0347 17.4538 34.9387 18.8953 35.8069 20.3952C36.685 21.9119 37.4916 23.4145 38.221 24.8883C37.4938 26.3874 36.6889 27.9052 35.8148 29.4212ZM40.7498 2.70658C42.625 3.788 43.3543 8.14936 42.1761 13.8685C42.1009 14.2334 42.0163 14.6051 41.9244 14.9818C39.6011 14.4457 37.0782 14.0468 34.4368 13.799C32.898 11.6077 31.3035 9.61564 29.7029 7.89099C30.1332 7.47703 30.563 7.0823 30.9909 6.70979C35.1252 3.11187 38.9892 1.69134 40.7498 2.70658ZM28 19.8643C30.7617 19.8643 33.0006 22.1031 33.0006 24.8649C33.0006 27.6266 30.7617 29.8655 28 29.8655C25.2383 29.8655 22.9994 27.6266 22.9994 24.8649C22.9994 22.1031 25.2383 19.8643 28 19.8643Z" fill="#00D8FF"/>
</svg>
