<svg width="56" height="34" viewBox="0 0 56 34" fill="none" xmlns="http://www.w3.org/2000/svg">
<path d="M28 0C20.5333 0 15.8667 3.73333 14 11.2C16.8 7.46667 20.0667 6.06667 23.8 7C25.9301 7.53252 27.4525 9.07781 29.1377 10.7884C31.883 13.5749 35.0603 16.8 42 16.8C49.4667 16.8 54.1333 13.0667 56 5.6C53.2 9.33333 49.9333 10.7333 46.2 9.8C44.0699 9.26748 42.5475 7.72219 40.8623 6.0116C38.117 3.22508 34.9397 0 28 0ZM14 16.8C6.53333 16.8 1.86667 20.5333 0 28C2.8 24.2667 6.06667 22.8667 9.8 23.8C11.9301 24.3325 13.4525 25.8778 15.1377 27.5884C17.883 30.3749 21.0603 33.6 28 33.6C35.4667 33.6 40.1333 29.8667 42 22.4C39.2 26.1333 35.9333 27.5333 32.2 26.6C30.0699 26.0675 28.5475 24.5222 26.8623 22.8116C24.117 20.0251 20.9397 16.8 14 16.8Z" fill="url(#paint0_linear_245_112)"/>
<defs>
<linearGradient id="paint0_linear_245_112" x1="-398.222" y1="1655.81" x2="13323.4" y2="6415.1" gradientUnits="userSpaceOnUse">
<stop stop-color="#2298BD"/>
<stop offset="1" stop-color="#0ED7B5"/>
</linearGradient>
</defs>
</svg>
