<?xml version="1.0" encoding="UTF-8"?>
<svg id="_레이어_1" data-name="레이어_1" xmlns="http://www.w3.org/2000/svg" xmlns:xlink="http://www.w3.org/1999/xlink" version="1.1" viewBox="0 0 291.5 53.3">
  <!-- Generator: Adobe Illustrator 29.2.1, SVG Export Plug-In . SVG Version: 2.1.0 Build 116)  -->
  <defs>
    <style>
      .st0 {
        fill: url(#_무제_그라디언트);
      }

      .st1 {
        fill: #fff;
      }
    </style>
    <linearGradient id="_무제_그라디언트" data-name="무제 그라디언트" x1="9" y1="29.1" x2="282.5" y2="29.1" gradientTransform="translate(0 55.8) scale(1 -1)" gradientUnits="userSpaceOnUse">
      <stop offset="0" stop-color="#90cea1"/>
      <stop offset=".6" stop-color="#3cbec9"/>
      <stop offset="1" stop-color="#00b3e5"/>
    </linearGradient>
  </defs>
  <g id="Layer_2">
    <g id="Layer_1-2">
      <g>
        <path class="st1" d="M172.3,25c1.2-2.1,1.9-4.5,1.8-7,0-2.7-.6-5.3-2-7.7v-.2c-1.4-2-3.2-3.6-5.3-4.7-1.9-1-3.9-1.6-6-1.9-1.8-.3-3.6-.4-5.5-.4h-19v18.9c-.4-2.1-1-4.1-1.9-6-1.4-3-3.6-5.7-6.3-7.7-2.6-1.9-5.6-3.3-8.7-4-3.1-.8-6.3-1.2-9.5-1.2h-16.8c0-.1-21.7-.1-21.7-.1l-4.1,11.6-4.1-11.6H3.2v18.6h10.1v28.5h19.5v-28.5h8.6v28.5h19.5s31.5,0,31.5,0v.2h18.7c3.1,0,6.2-.5,9.2-1.4,3-.9,5.8-2.4,8.3-4.4,2.5-2,4.5-4.6,6-7.5.8-1.8,1.5-3.7,1.8-5.6v18.9h20.3c2,0,4-.2,5.9-.6,2.2-.4,4.2-1.2,6.1-2.4,2-1.2,3.8-2.9,5.1-5,1.4-2.3,2.1-5,2-7.8,0-1.8-.3-3.5-.9-5.1-.6-1.6-1.4-3.1-2.6-4.4Z"/>
        <path class="st1" d="M264.8,3.1h-63.9c-13,0-23.5,10.6-23.5,23.5s10.5,23.5,23.5,23.5h63.9c13,0,23.5-10.5,23.5-23.5,0-13-10.5-23.5-23.5-23.5Z"/>
      </g>
      <path class="st0" d="M200.9,44.3h63.9c9.8,0,17.7-7.9,17.7-17.7h0c0-9.8-7.9-17.7-17.6-17.7,0,0,0,0,0,0h-63.9c-9.8,0-17.7,7.9-17.7,17.7,0,0,0,0,0,0h0c0,9.8,7.9,17.7,17.7,17.7h0ZM19.1,44.3h7.8V15.8h10.1v-6.9H9v6.9h10.1v28.5ZM47.2,44.3h7.8v-27.2h0l9,27.2h6l9.3-27.2h0v27.2h7.8V8.9h-11.8l-8.2,23.1h0l-8.1-23.1h-11.8v35.4ZM98.2,9h11.7c2.7,0,5.4.3,8.1,1,2.4.6,4.7,1.6,6.7,3.1,1.9,1.5,3.5,3.3,4.5,5.5,1.2,2.6,1.8,5.4,1.7,8.2,0,2.6-.5,5.2-1.6,7.6-1,2.1-2.5,4-4.4,5.5-1.9,1.5-4,2.7-6.3,3.4-2.4.8-5,1.2-7.6,1.2h-12.7V9ZM106,37.2h4c1.7,0,3.4-.2,5-.5,1.5-.3,2.8-.9,4.1-1.8,1.2-.9,2.1-2,2.7-3.4.7-1.6,1-3.3,1-5.1,0-1.6-.3-3.1-1-4.5-.6-1.2-1.5-2.3-2.6-3.2-1.2-.9-2.4-1.5-3.8-1.9-1.5-.4-3.1-.6-4.7-.6h-4.6v21ZM142.1,9h13.2c1.5,0,3.1.1,4.6.3,1.5.2,2.9.6,4.2,1.3,1.2.6,2.3,1.6,3,2.7.8,1.4,1.2,3,1.1,4.7,0,1.8-.5,3.6-1.7,5-1.2,1.4-2.7,2.3-4.4,2.8h0c1.1.2,2.2.6,3.2,1.1.9.5,1.8,1.1,2.4,1.9.7.8,1.2,1.7,1.6,2.6.4,1,.6,2.1.6,3.2,0,1.6-.4,3.3-1.2,4.7-.8,1.2-1.8,2.3-3.1,3-1.3.8-2.8,1.3-4.3,1.6-1.6.3-3.1.5-4.7.5h-14.5V9ZM149.9,23.2h5.6c.6,0,1.2,0,1.8-.2.6-.1,1.1-.3,1.6-.6.5-.3.9-.7,1.1-1.2.3-.6.4-1.2.4-1.8,0-.6-.1-1.3-.4-1.8-.3-.5-.7-.9-1.2-1.1-.6-.3-1.2-.5-1.8-.6-.6-.1-1.2-.2-1.9-.2h-5.3v7.5ZM149.9,37.8h7c.6,0,1.2,0,1.8-.2.6-.1,1.2-.4,1.7-.7.5-.3.9-.8,1.2-1.3.3-.6.5-1.3.5-2,0-.7-.2-1.4-.6-2-.4-.5-1-.9-1.6-1.2-.6-.3-1.3-.5-2-.5-.7,0-1.4-.1-2.1-.1h-5.9v8Z"/>
    </g>
  </g>
</svg>