<svg width="56" height="56" viewBox="0 0 56 56" fill="none" xmlns="http://www.w3.org/2000/svg">
<path d="M0 28V56H28H56V28V0H28H0V28Z" fill="#007ACC"/>
<path d="M12.3836 28.1857L12.3658 30.4791H16.0102H19.6547V40.8346V51.1902H22.2325H24.8102V40.8346V30.4791H28.4547H32.0991V28.2302C32.0991 26.9857 32.0725 25.9457 32.0369 25.9191C32.0102 25.8835 27.5747 25.8657 22.1969 25.8746L12.4102 25.9013L12.3836 28.1857Z" fill="white"/>
<path d="M45.1865 25.8362C46.6087 26.1918 47.6931 26.8229 48.6887 27.854C49.2042 28.4051 49.9687 29.4095 50.0309 29.6495C50.0487 29.7207 47.6131 31.3562 46.1376 32.2718C46.0842 32.3073 45.8709 32.0762 45.6309 31.7207C44.9109 30.6718 44.1554 30.2184 42.9998 30.1384C41.302 30.0229 40.2087 30.9118 40.2176 32.3962C40.2176 32.8318 40.2798 33.0895 40.4576 33.4451C40.8309 34.2184 41.5242 34.6807 43.702 35.6229C47.7109 37.3473 49.4265 38.4851 50.4931 40.1029C51.6842 41.9073 51.9509 44.7873 51.142 46.9295C50.2531 49.2584 48.0487 50.8407 44.9465 51.3651C43.9865 51.534 41.7109 51.5073 40.6798 51.3207C38.4309 50.9207 36.2976 49.8095 34.982 48.3518C34.4665 47.7829 33.462 46.2984 33.5242 46.1918C33.5509 46.1562 33.782 46.014 34.0398 45.8629C34.2887 45.7207 35.2309 45.1784 36.1198 44.6629L37.7287 43.7295L38.0665 44.2273C38.5376 44.9473 39.5687 45.934 40.1909 46.2629C41.9776 47.2051 44.4309 47.0718 45.6398 45.9873C46.1554 45.5162 46.3687 45.0273 46.3687 44.3073C46.3687 43.6584 46.2887 43.374 45.9509 42.8851C45.5154 42.2629 44.6265 41.7384 42.102 40.6451C39.2131 39.4007 37.9687 38.6273 36.8309 37.4007C36.1731 36.6895 35.5509 35.5518 35.2931 34.6007C35.0798 33.8095 35.0265 31.8273 35.1954 31.0273C35.7909 28.2362 37.8976 26.2895 40.9376 25.7118C41.9242 25.5251 44.2176 25.5962 45.1865 25.8362Z" fill="white"/>
</svg>
