<svg width="79" height="27" viewBox="0 0 79 27" fill="none" xmlns="http://www.w3.org/2000/svg">
<path d="M74.02 2.34H23.2C22.76 1.63 22.19 1.05 21.47 0.64C20.73 0.22 19.9 0 19 0C17.27 0 15.63 0.8 14.32 1.71C13 0.8 11.36 0.02 9.64 0.02C8.72 0.02 7.88 0.24 7.14 0.67C5.16 1.82 4.23 4.21 4.5 7.37C1.62 8.72 0 10.74 0 13.05C0 15.36 1.65 17.41 4.49 18.78C4.23 21.93 5.17 24.32 7.16 25.47C7.91 25.9 8.75 26.12 9.67 26.12C11.14 26.12 12.76 25.54 14.37 24.45C15.96 25.55 17.55 26.13 19.01 26.13C19.92 26.13 20.76 25.91 21.5 25.48C22.2 25.07 22.77 24.5 23.21 23.79H74.02C76.51 23.79 78.53 21.77 78.53 19.28V6.85C78.53 4.36 76.51 2.34 74.02 2.34Z" fill="white"/>
<path d="M74.39 5.16992H28.83C28.1121 5.16992 27.53 5.75195 27.53 6.46992V19.6599C27.53 20.3779 28.1121 20.9599 28.83 20.9599H74.39C75.108 20.9599 75.69 20.3779 75.69 19.6599V6.46992C75.69 5.75195 75.108 5.16992 74.39 5.16992Z" fill="#00D8FF"/>
<path d="M21.74 9.46994C21.5 9.38994 21.25 9.30994 21 9.23994C21.04 9.06994 21.08 8.89994 21.11 8.73994C21.67 6.01994 21.3 3.82994 20.05 3.10994C18.85 2.41994 16.89 3.13994 14.91 4.85994C14.72 5.02994 14.53 5.19994 14.34 5.38994C14.21 5.26994 14.09 5.14994 13.96 5.03994C11.88 3.19994 9.79996 2.41994 8.54996 3.13994C7.34996 3.82994 6.99996 5.88994 7.49996 8.46994C7.54996 8.71994 7.60996 8.96994 7.66996 9.22994C7.37996 9.30994 7.08996 9.39994 6.81996 9.49994C4.38996 10.3499 2.82996 11.6799 2.82996 13.0599C2.82996 14.4399 4.49996 15.9199 7.03996 16.7799C7.23996 16.8499 7.44996 16.9099 7.65996 16.9699C7.58996 17.2499 7.52996 17.5199 7.47996 17.7899C6.99996 20.3199 7.36996 22.3399 8.56996 23.0199C9.79996 23.7299 11.88 22.9999 13.9 21.2399C14.06 21.0999 14.22 20.9499 14.38 20.7999C14.59 20.9999 14.8 21.1899 15 21.3699C16.95 23.0499 18.89 23.7299 20.08 23.0399C21.31 22.3299 21.71 20.1599 21.19 17.5399C21.15 17.3399 21.1 17.1299 21.05 16.9299C21.2 16.8899 21.34 16.8399 21.48 16.7999C24.12 15.9299 25.83 14.5099 25.83 13.0699C25.83 11.6299 24.22 10.3499 21.74 9.48994V9.46994ZM21.17 15.8399C21.04 15.8799 20.92 15.9199 20.78 15.9599C20.49 15.0399 20.1 14.0599 19.62 13.0499C20.08 12.0599 20.46 11.0899 20.74 10.1799C20.98 10.2499 21.2 10.3199 21.42 10.3999C23.55 11.1299 24.85 12.2199 24.85 13.0499C24.85 13.9399 23.45 15.0899 21.17 15.8499V15.8399ZM20.23 17.7199C20.46 18.8799 20.49 19.9299 20.34 20.7599C20.2 21.4999 19.93 21.9899 19.59 22.1899C18.87 22.6099 17.32 22.0599 15.64 20.6299C15.45 20.4699 15.26 20.2899 15.06 20.0999C15.71 19.3899 16.36 18.5699 16.99 17.6499C18.1 17.5499 19.15 17.3899 20.1 17.1699C20.15 17.3599 20.19 17.5399 20.22 17.7299L20.23 17.7199ZM10.68 22.1099C9.96996 22.3599 9.40996 22.3699 9.06996 22.1699C8.33996 21.7499 8.03996 20.1399 8.44996 17.9699C8.49996 17.7199 8.54996 17.4699 8.61996 17.2099C9.55996 17.4199 10.6 17.5699 11.72 17.6599C12.36 18.5599 13.02 19.3799 13.69 20.0999C13.54 20.2399 13.4 20.3799 13.25 20.4999C12.36 21.2799 11.46 21.8299 10.68 22.1099ZM7.35996 15.8399C6.23996 15.4599 5.30996 14.9599 4.67996 14.4099C4.10996 13.9199 3.81996 13.4399 3.81996 13.0399C3.81996 12.1999 5.06996 11.1299 7.14996 10.4099C7.39996 10.3199 7.66996 10.2399 7.93996 10.1599C8.22996 11.0999 8.60996 12.0699 9.05996 13.0599C8.59996 14.0599 8.21996 15.0599 7.91996 16.0099C7.71996 15.9499 7.52996 15.8899 7.34996 15.8299L7.35996 15.8399ZM8.46996 8.26994C8.03996 6.05994 8.31996 4.38994 9.04996 3.97994C9.81996 3.52994 11.52 4.16994 13.31 5.75994C13.42 5.85994 13.54 5.96994 13.66 6.07994C12.99 6.79994 12.33 7.60994 11.7 8.49994C10.62 8.59994 9.57996 8.75994 8.62996 8.97994C8.56996 8.73994 8.51996 8.49994 8.46996 8.26994ZM18.39 10.7199C18.16 10.3299 17.93 9.93994 17.69 9.56994C18.42 9.65994 19.13 9.78994 19.79 9.93994C19.59 10.5799 19.34 11.2399 19.05 11.9199C18.84 11.5199 18.62 11.1199 18.39 10.7199ZM14.35 6.77994C14.8 7.26994 15.26 7.81994 15.7 8.40994C15.25 8.38994 14.79 8.37994 14.34 8.37994C13.89 8.37994 13.43 8.38994 12.99 8.40994C13.44 7.81994 13.89 7.26994 14.35 6.77994ZM10.27 10.7299C10.04 11.1199 9.82996 11.5199 9.61996 11.9199C9.32996 11.2399 9.08996 10.5699 8.88996 9.92994C9.54996 9.77994 10.25 9.65994 10.98 9.56994C10.74 9.94994 10.5 10.3299 10.27 10.7299ZM11 16.5999C10.25 16.5199 9.53996 16.3999 8.87996 16.2599C9.07996 15.5999 9.32996 14.9199 9.62996 14.2299C9.83996 14.6299 10.05 15.0199 10.28 15.4199C10.51 15.8199 10.75 16.2199 11 16.5999ZM14.37 19.3799C13.9 18.8799 13.44 18.3199 12.99 17.7199C13.43 17.7399 13.88 17.7499 14.34 17.7499C14.8 17.7499 15.27 17.7399 15.73 17.7199C15.28 18.3299 14.83 18.8899 14.38 19.3799H14.37ZM19.06 14.1899C19.37 14.8899 19.63 15.5699 19.83 16.2099C19.16 16.3599 18.44 16.4799 17.68 16.5799C17.92 16.1999 18.15 15.8099 18.39 15.4099C18.62 14.9999 18.85 14.5999 19.06 14.1899ZM17.54 14.9199C17.18 15.5399 16.81 16.1399 16.44 16.6999C15.76 16.7499 15.05 16.7699 14.33 16.7699C13.61 16.7699 12.92 16.7499 12.25 16.6999C11.86 16.1299 11.48 15.5299 11.13 14.9199C10.77 14.2999 10.45 13.6799 10.15 13.0699C10.45 12.4499 10.77 11.8299 11.13 11.2199C11.49 10.5999 11.86 10.0099 12.25 9.43994C12.93 9.38994 13.64 9.35994 14.34 9.35994C15.04 9.35994 15.75 9.38994 16.44 9.43994C16.82 9.99994 17.19 10.5899 17.55 11.2099C17.91 11.8299 18.24 12.4499 18.54 13.0599C18.24 13.6799 17.91 14.2999 17.55 14.9199H17.54ZM19.57 3.94994C20.34 4.38994 20.64 6.18994 20.16 8.52994C20.13 8.67994 20.09 8.82994 20.06 8.98994C19.11 8.76994 18.07 8.60994 16.98 8.49994C16.35 7.59994 15.69 6.77994 15.04 6.06994C15.22 5.89994 15.39 5.73994 15.57 5.57994C17.27 4.09994 18.85 3.51994 19.58 3.93994L19.57 3.94994ZM14.33 10.9899C15.46 10.9899 16.38 11.9099 16.38 13.0399C16.38 14.1699 15.46 15.0899 14.33 15.0899C13.2 15.0899 12.28 14.1699 12.28 13.0399C12.28 11.9099 13.2 10.9899 14.33 10.9899Z" fill="#00D8FF"/>
<path d="M41.3 8.30005V14.35C41.3 16.48 39.67 17.83 37.26 17.83C34.85 17.83 33.23 16.48 33.23 14.35V8.30005H35.7V14.13C35.7 15.04 36.35 15.69 37.26 15.69C38.17 15.69 38.83 15.04 38.83 14.13V8.30005H41.3Z" fill="white"/>
<path d="M45.05 17.71H42.58V8.30005H45.05V17.71Z" fill="white"/>
<path d="M49.22 8.30005H51.69V12.15H51.82L54.73 8.30005H57.63L54.41 12.5L57.7 17.71H54.74L52.57 14.13L51.7 15.25V17.71H49.23V8.30005H49.22Z" fill="white"/>
<path d="M60.8899 17.71H58.4199V8.30005H60.8899V17.71Z" fill="white"/>
<path d="M61.89 8.30005H70V10.3H67.17V17.71H64.73V10.3H61.9V8.30005H61.89Z" fill="white"/>
</svg>
