<?xml version="1.0" encoding="UTF-8"?>
<svg id="_레이어_1" data-name="레이어_1" xmlns="http://www.w3.org/2000/svg" xmlns:xlink="http://www.w3.org/1999/xlink" version="1.1" viewBox="0 0 108 40">
  <!-- Generator: Adobe Illustrator 29.2.1, SVG Export Plug-In . SVG Version: 2.1.0 Build 116)  -->
  <defs>
    <style>
      .st0 {
        fill: none;
      }

      .st1 {
        fill: #231815;
      }

      .st2 {
        fill: #1c4eea;
      }

      .st3 {
        clip-path: url(#clippath);
      }
    </style>
    <clipPath id="clippath">
      <rect class="st0" y="10" width="107.1" height="20"/>
    </clipPath>
  </defs>
  <g class="st3">
    <g>
      <path class="st1" d="M0,13.2h4.3l2.5,11h.1l2.9-7.9h3.6l2.9,7.9h.1l2.6-11h4.3l-4.8,16.6h-3.8l-3-7.1h-.1l-3,7.1h-3.8L0,13.2Z"/>
      <path class="st1" d="M23.1,23.6c0-3.8,2.4-6.4,6.3-6.4s6.3,2.6,6.3,6.4-2.4,6.4-6.3,6.4-6.3-2.6-6.3-6.4ZM31.7,23.6c0-2.1-.8-3.5-2.3-3.5s-2.3,1.4-2.3,3.5.8,3.5,2.3,3.5,2.3-1.4,2.3-3.5Z"/>
      <path class="st1" d="M37.6,17.3h3.8v1.6h.1c.5-1.6,1.6-1.8,2.9-1.8s.8,0,1.1.1v3.4c-.4-.1-1.1-.2-1.5-.2-1.4,0-2.5,1-2.5,2.5v6.8h-3.9v-12.5h0Z"/>
      <path class="st1" d="M47.1,13.2h3.9v7.7h.2l3.6-3.5h4.4l-4.5,5.4,4.7,7h-4.5l-3.1-4.8-.8,1v3.8h-3.9V13.2h0Z"/>
      <path class="st1" d="M79.2,29.8h-3.9V13.2h3.9v16.6Z"/>
      <path class="st1" d="M89.7,17.3h3.9v12.4h-3.7v-2.3h-.1c-.5,1.5-1.9,2.4-3.8,2.4s-4.3-1.8-4.3-4.7v-7.9h3.9v7.2c0,1.4.8,2.2,2,2.2s2.2-.8,2.2-2.3v-7.1h0Z"/>
      <path class="st1" d="M101.3,19.8c-1,0-1.7.4-1.7,1.1,0,.5.4.9,1.4,1.1l2.4.5c2.5.5,3.7,1.6,3.7,3.4,0,2.5-2.4,4.2-5.7,4.2s-5.6-1.6-5.9-4.1h3.9c.1.9.9,1.4,2.1,1.4s1.8-.4,1.8-1.1c0-.5-.5-.9-1.6-1.1l-2.1-.4c-2.4-.5-3.7-1.7-3.7-3.6,0-2.5,2.1-4,5.5-4s5.4,1.5,5.6,4h-3.6c-.1-.8-.8-1.4-1.9-1.4h0Z"/>
      <path class="st1" d="M60.5,21.5v8.3h3.2v-5.2h3.5c3.8,0,6.1-2.3,6.1-5.7s-2.2-5.5-5.7-5.7v3.3c1.1.3,1.7,1.2,1.7,2.4s-1,2.6-2.8,2.6h-6,0Z"/>
      <path class="st2" d="M63.7,13.2v-3.2h-3.2v3.2h-3.2v3.2h3.2v3.2h3.2v-3.2h3.2v-3.2h-3.2Z"/>
    </g>
  </g>
</svg>